<svg width="272" height="245" viewBox="0 0 272 245" fill="none" xmlns="http://www.w3.org/2000/svg">
<ellipse cx="136" cy="120.5" rx="136" ry="120.5" fill="white"/>
<g clip-path="url(#clip0)">
<path opacity="0.18" d="M245.871 112.3C247.197 117.523 247.358 122.972 246.342 128.263C245.326 133.555 243.157 138.561 239.988 142.931C235.257 149.334 228.512 154.122 224.311 160.865C215.232 175.423 220.106 195.302 211.778 210.298C204.818 222.843 190.397 229.006 177.007 234.296C166.493 238.446 155.873 242.623 144.728 244.296C133.583 245.968 121.597 244.907 111.939 239.142C103.975 234.401 98.1233 226.884 92.7189 219.378C79.434 200.91 67.4266 180.801 63.3471 158.461C59.2675 136.12 64.3565 111.061 81.0848 95.6043C89.2281 88.0772 99.895 82.8867 105.641 73.4203C111.671 63.4887 111.755 49.6316 121.129 42.7109C124.588 40.1548 128.888 38.9682 133.157 38.4037C143.434 37.0884 153.865 39.0835 162.918 44.0961C172.102 49.2134 179.641 57.3469 189.645 60.619C202.594 64.8583 219.212 61.6017 227.818 74.1469C234.731 84.2353 242.801 100.549 245.871 112.3Z" fill="#3269B1"/>
<path d="M190.774 105.158C190.624 105.474 190.419 105.76 190.17 106.005C188.166 108.11 185.572 109.566 182.725 110.187C181.72 110.417 180.692 110.533 179.661 110.532C179.056 106.653 178.441 102.77 177.968 98.8753C177.594 95.8331 177.316 92.7962 177.184 89.7435C177.095 87.8304 172.926 81.1605 173.778 79.3729C174.719 77.4074 181.495 84.1348 182.258 85.4154C186.49 92.4721 188.009 97.9292 190.911 103.998C191.021 104.388 190.972 104.805 190.774 105.158Z" fill="#20BF7A"/>
<path d="M183.409 109.476C183.206 109.738 182.977 109.98 182.726 110.197C181.72 110.427 180.692 110.543 179.661 110.542C179.056 106.664 178.441 102.78 177.968 98.8857C178.147 95.8261 178.471 92.7787 178.94 89.7434C178.741 91.0136 180.312 93.784 180.738 95.0281L182.584 100.449C183.546 103.277 185.601 106.716 183.409 109.476Z" fill="url(#paint0_linear)"/>
<path d="M181.143 116.109C181.564 118.66 182.1 121.242 183.367 123.5C184.019 124.661 184.992 125.8 186.311 126.004C187.045 126.073 187.785 125.964 188.467 125.685C189.88 125.202 191.212 124.511 192.42 123.636C193.574 122.756 194.662 121.794 195.674 120.756C197.18 119.343 198.574 117.815 199.843 116.188C200.427 115.404 200.958 114.578 201.594 113.83C204.222 110.72 208.428 109.324 211.409 106.549C212.213 105.806 213.843 102.409 213.722 101.322C212.628 100.694 210.384 103.219 209.175 103.585C207.965 103.951 206.835 104.547 205.621 104.887C204.167 105.29 202.632 105.309 201.168 104.944C200.674 104.819 200.085 97.0667 199.591 97.2444C199.342 97.3481 199.119 97.5052 198.939 97.7044C197.919 98.7498 197.362 107.673 196.515 108.833C195.353 110.401 193.745 111.593 192.152 112.732C192.01 112.832 191.831 112.936 191.673 112.858C191.621 112.819 191.578 112.771 191.545 112.715C191.513 112.659 191.492 112.598 191.484 112.534C191.069 111.002 190.601 109.481 190.091 107.981C189.734 106.936 189.229 105.786 188.172 105.472C187.231 105.195 186.253 105.723 185.412 106.23C184.329 106.889 183.236 107.537 182.158 108.201C181.559 108.566 180.833 108.922 180.549 109.596C180.202 110.406 180.497 111.525 180.597 112.356C180.754 113.616 180.938 114.865 181.143 116.109Z" fill="#F5BCBA"/>
<path d="M190.738 187.204C190.738 188.803 190.659 190.376 190.517 191.939C189.291 205.314 182.944 217.71 172.788 226.565C162.633 235.421 149.444 240.059 135.947 239.522C122.45 238.986 109.676 233.315 100.264 223.681C90.8526 214.047 85.5219 201.187 85.3737 187.758C85.3737 187.58 85.3737 187.407 85.3737 187.235C85.3042 180.312 86.6155 173.444 89.232 167.027C91.8485 160.611 95.7181 154.774 100.617 149.854C105.516 144.934 111.348 141.029 117.774 138.363C124.201 135.698 131.095 134.325 138.059 134.325C145.022 134.325 151.916 135.698 158.343 138.363C164.769 141.029 170.601 144.934 175.5 149.854C180.399 154.774 184.269 160.611 186.885 167.027C189.501 173.444 190.813 180.312 190.743 187.235L190.738 187.204Z" fill="#3269B1"/>
<path d="M190.738 187.203C190.738 188.803 190.659 190.376 190.517 191.939C178.394 200.141 160.551 205.316 140.653 205.316C117.521 205.316 97.1971 198.327 85.3737 187.731C85.3737 187.554 85.3737 187.381 85.3737 187.209C85.3042 180.286 86.6155 173.417 89.232 167.001C91.8485 160.585 95.7181 154.748 100.617 149.828C105.516 144.908 111.348 141.002 117.774 138.337C124.201 135.671 131.095 134.299 138.059 134.299C145.022 134.299 151.916 135.671 158.343 138.337C164.769 141.002 170.601 144.908 175.5 149.828C180.399 154.748 184.269 160.585 186.885 167.001C189.501 173.417 190.813 180.286 190.743 187.209L190.738 187.203Z" fill="url(#paint1_linear)"/>
<path d="M162.212 166.724C164.315 167.476 166.602 168.015 168.326 169.442C169.856 170.701 170.786 172.526 171.538 174.35C174.045 180.472 174.949 187.126 174.167 193.69C173.956 195.436 173.641 197.234 174.098 198.918C174.556 200.601 176.117 202.179 177.873 201.97C180.307 197.161 180.36 191.547 180.365 186.163C180.365 182.232 180.365 178.218 179.04 174.512C177.957 171.459 176.043 168.762 174.067 166.196C166.859 156.787 158.138 148.01 147.034 143.782C146.574 143.547 146.045 143.483 145.541 143.599C143.255 144.43 143.628 148.476 144.516 150.101C145.778 152.347 147.183 154.51 148.722 156.578C152.099 161.223 156.797 164.757 162.212 166.724Z" fill="url(#paint2_linear)"/>
<path d="M141.42 154.91C141.451 154.207 141.542 153.507 141.693 152.819C141.774 152.478 141.948 152.165 142.195 151.916C142.443 151.666 142.755 151.488 143.097 151.403C143.386 151.395 143.674 151.369 143.959 151.324C144.543 151.147 144.79 150.472 144.958 149.892L146.824 143.411C147.182 142.156 147.544 140.839 147.271 139.569C146.84 137.582 145.005 136.239 143.218 135.267C141.919 134.556 140.458 133.923 139.012 134.19C136.772 134.603 135.474 136.903 134.638 139.009C133.665 141.266 133.067 143.665 132.866 146.113C132.719 148.941 132.477 155.867 134.238 158.339C136.678 161.81 141.031 158.047 141.42 154.91Z" fill="url(#paint3_linear)"/>
<path d="M169.777 146.73C174.545 148.334 179.629 149.009 184.224 151.053C184.372 151.097 184.509 151.172 184.627 151.272C184.744 151.371 184.84 151.494 184.907 151.633C184.947 151.859 184.918 152.092 184.823 152.302C180.943 163.776 178.754 175.748 178.325 187.846C181.075 188.338 183.884 188.4 186.653 188.029C186.964 188.01 187.265 187.915 187.531 187.752C187.786 187.53 187.978 187.245 188.088 186.926C192.535 176.998 196.527 166.884 200.064 156.583C200.689 154.759 201.31 152.851 201.057 150.938C200.695 148.152 198.586 145.956 196.583 143.975L180.975 128.492C180.578 128.047 180.091 127.691 179.545 127.447C178.917 127.261 178.253 127.229 177.61 127.353C171.454 128.111 163.048 128.346 151.735 127.875C150.268 127.813 157.517 136.119 158.122 137.713C158.606 138.978 160.135 140.609 161.071 141.591C163.416 144.038 166.581 145.653 169.777 146.73Z" fill="#525263"/>
<path d="M169.777 146.73C174.545 148.334 179.629 149.009 184.224 151.053C184.372 151.097 184.509 151.172 184.627 151.272C184.744 151.371 184.84 151.494 184.907 151.633C184.947 151.859 184.918 152.092 184.823 152.302C180.943 163.776 178.754 175.748 178.325 187.846C181.075 188.338 183.884 188.4 186.653 188.029C186.964 188.01 187.265 187.915 187.531 187.752C187.786 187.53 187.978 187.245 188.088 186.926C192.535 176.998 196.527 166.884 200.064 156.583C200.689 154.759 201.31 152.851 201.057 150.938C200.695 148.152 198.586 145.956 196.583 143.975L180.975 128.492C180.578 128.047 180.091 127.691 179.545 127.447C178.917 127.261 178.253 127.229 177.61 127.353C171.454 128.111 163.048 128.346 151.735 127.875C150.268 127.813 157.517 136.119 158.122 137.713C158.606 138.978 160.135 140.609 161.071 141.591C163.416 144.038 166.581 145.653 169.777 146.73Z" fill="url(#paint4_linear)"/>
<path d="M177.527 194.71C177.144 195.302 176.885 195.965 176.764 196.659C176.484 197.874 176.277 199.105 176.144 200.345C176.039 201.306 176.002 202.352 176.554 203.141C177.106 203.93 178.016 204.218 178.867 204.547C181.011 205.424 183.094 206.442 185.102 207.595C186.459 208.337 187.873 209.105 189.419 209.163C190.964 209.22 192.673 208.379 193.025 206.884C193.147 206.164 193.086 205.425 192.846 204.735C192.002 201.736 190.348 199.024 188.062 196.895C187.662 196.506 187.215 196.167 186.732 195.886C186.269 195.648 185.785 195.452 185.286 195.3C183.882 194.79 182.444 194.379 180.981 194.072C179.703 193.868 178.41 193.492 177.527 194.71Z" fill="#2E2E3F"/>
<path d="M177.527 194.71C177.144 195.302 176.885 195.965 176.764 196.659C176.484 197.874 176.277 199.105 176.144 200.345C176.039 201.306 176.002 202.352 176.554 203.141C177.106 203.93 178.016 204.218 178.867 204.547C181.011 205.424 183.094 206.442 185.102 207.595C186.459 208.337 187.873 209.105 189.419 209.163C190.964 209.22 192.673 208.379 193.025 206.884C193.147 206.164 193.086 205.425 192.846 204.735C192.002 201.736 190.348 199.024 188.062 196.895C187.662 196.506 187.215 196.167 186.732 195.886C186.269 195.648 185.785 195.452 185.286 195.3C183.882 194.79 182.444 194.379 180.981 194.072C179.703 193.868 178.41 193.492 177.527 194.71Z" fill="url(#paint5_linear)"/>
<path d="M179.088 188.238C178.69 190.306 178.482 192.406 178.468 194.511C178.468 195.436 178.531 196.461 179.199 197.125C179.83 197.624 180.636 197.853 181.438 197.762C182.405 197.727 183.359 197.531 184.261 197.182C184.461 197.12 184.642 197.009 184.787 196.858C184.893 196.71 184.967 196.54 185.002 196.361C185.805 193.369 186.23 190.29 186.269 187.193C186.321 186.708 186.22 186.218 185.98 185.792C185.481 185.097 184.445 185.128 183.604 185.296C182.527 185.525 181.472 185.845 180.45 186.252C179.482 186.587 179.283 187.245 179.088 188.238Z" fill="#F5BCBA"/>
<path d="M189.454 198.066C189.835 198.994 190.144 199.95 190.38 200.925C190.543 201.683 190.637 202.493 191.126 203.099C191.747 203.857 192.824 204.051 193.807 204.066C194.618 204.112 195.428 203.976 196.178 203.669C196.569 203.517 196.895 203.236 197.104 202.874C197.25 202.517 197.301 202.128 197.251 201.745C197.174 199.09 196.508 196.484 195.3 194.114C194.608 192.889 193.828 191.715 192.966 190.601C192.694 190.1 192.236 189.725 191.689 189.556C191.408 189.546 191.127 189.592 190.865 189.692C190.602 189.791 190.362 189.942 190.159 190.136C189.291 190.784 187.383 191.866 187.583 193.094C187.835 194.731 188.866 196.513 189.454 198.066Z" fill="#F5BCBA"/>
<path d="M195.826 199.994C195.231 200.325 194.654 200.686 194.097 201.076C193.229 201.552 192.209 201.646 191.258 201.918C191.007 201.966 190.776 202.088 190.595 202.268C190.464 202.444 190.383 202.652 190.359 202.869C190.18 204.296 190.239 205.742 190.532 207.15C191.016 210.196 191.58 213.229 192.225 216.251C192.493 217.495 192.814 218.807 193.723 219.701C194.633 220.594 196.016 220.903 197.309 220.939C198.519 221.009 199.728 220.784 200.831 220.286C201.709 219.819 202.469 219.161 203.055 218.361C203.642 217.561 204.039 216.639 204.217 215.665C204.559 213.707 204.318 211.692 203.523 209.868C202.983 208.621 202.354 207.414 201.641 206.256C200.694 204.64 199.752 203.023 198.812 201.406C198.097 200.172 197.446 199.31 195.826 199.994Z" fill="#2E2E3F"/>
<path d="M195.826 199.994C195.231 200.325 194.654 200.686 194.097 201.076C193.229 201.552 192.209 201.646 191.258 201.918C191.007 201.966 190.776 202.088 190.595 202.268C190.464 202.444 190.383 202.652 190.359 202.869C190.18 204.296 190.239 205.742 190.532 207.15C191.016 210.196 191.58 213.229 192.225 216.251C192.493 217.495 192.814 218.807 193.723 219.701C194.633 220.594 196.016 220.903 197.309 220.939C198.519 221.009 199.728 220.784 200.831 220.286C201.709 219.819 202.469 219.161 203.055 218.361C203.642 217.561 204.039 216.639 204.217 215.665C204.559 213.707 204.318 211.692 203.523 209.868C202.983 208.621 202.354 207.414 201.641 206.256C200.694 204.64 199.752 203.023 198.812 201.406C198.097 200.172 197.446 199.31 195.826 199.994Z" fill="url(#paint6_linear)"/>
<path d="M132.131 104.317C131.671 105.468 131.363 106.673 131.216 107.903C130.716 111.086 130.396 114.296 130.259 117.515C129.996 123.662 130.396 129.82 130.222 135.967C130.043 142.36 129.286 148.988 131.6 154.952C131.96 156.034 132.568 157.019 133.377 157.827C133.786 158.225 134.29 158.512 134.842 158.662C135.394 158.812 135.975 158.82 136.531 158.684C137.034 158.492 137.485 158.186 137.85 157.792C138.215 157.398 138.483 156.925 138.634 156.41C138.924 155.38 139.051 154.312 139.012 153.243L139.096 147.399C139.096 147.279 139.096 147.137 139.217 147.085C139.268 147.068 139.322 147.064 139.375 147.074C139.427 147.084 139.476 147.108 139.517 147.143C139.969 147.531 140.399 147.945 140.805 148.382C141.273 148.758 142.019 148.941 142.435 148.507C142.55 148.355 142.631 148.18 142.674 147.995C142.716 147.809 142.719 147.617 142.682 147.43C142.429 144.9 140.211 143.076 138.891 140.896C136.988 137.76 136.988 133.808 137.467 130.16C138.061 125.591 139.301 121.132 140.537 116.689L141.588 112.931C142.382 110.077 143.165 106.962 142.009 104.228C141.544 103.178 140.837 102.252 139.945 101.525C139.052 100.798 137.999 100.292 136.873 100.046C134.675 99.6437 132.924 102.54 132.131 104.317Z" fill="#F5BCBA"/>
<path d="M180.938 128.085C180.26 129.898 176.433 127.781 174.246 128.869C170.072 130.96 165.309 128.811 160.656 128.869C155.704 128.958 152.287 133.808 147.371 134.425C147.014 134.498 146.646 134.498 146.288 134.425C145.61 134.226 145.211 133.552 144.921 132.92C144.497 131.944 144.194 130.921 144.017 129.872C143.407 126.401 144.017 122.68 144.669 119.151C145.216 116.161 145.761 113.17 146.304 110.176C146.935 106.692 147.571 103.186 148.212 99.6594C148.586 97.3329 149.113 95.0333 149.79 92.7752C149.916 92.3832 150.047 92.0016 150.189 91.6253C151.412 88.5598 152.887 85.5999 154.6 82.7757C155.651 80.9619 156.703 79.1167 158.327 77.742C160.141 76.2209 162.48 75.463 164.83 75.0971C166.944 74.701 169.123 74.8266 171.176 75.463C172.348 75.8707 172.79 77.1043 173.72 77.8622C174.9 78.7311 175.952 79.7585 176.848 80.9149C177.758 82.311 178.408 83.8585 178.767 85.4834C182.063 98.2272 177.295 111.975 180.428 124.755C180.786 126.255 181.48 126.652 180.938 128.085Z" fill="#20BF7A"/>
<path d="M176.459 83.3193L176.869 85.9903L175.292 85.1174V92.195L173.494 84.3333L175.234 81.8139L176.459 83.3193Z" fill="url(#paint7_linear)"/>
<path d="M163.106 83.1468L164.099 83.6695L165.676 85.0338L161.471 96.2512C161.471 96.2512 167.58 86.9051 167.779 82.138C167.903 79.2056 167.535 76.2733 166.691 73.4609L163.106 83.1468Z" fill="url(#paint8_linear)"/>
<path d="M149.637 115.299C149.303 117.867 149.303 120.467 149.637 123.035C149.852 124.65 150.199 126.26 150.089 127.881C150.094 128.197 149.992 128.506 149.8 128.759C149.553 128.958 149.25 129.077 148.932 129.099C147.288 129.356 145.643 129.62 143.996 129.888C143.386 126.417 143.996 122.695 144.648 119.167C145.194 116.177 145.739 113.185 146.283 110.192C146.913 106.707 147.55 103.202 148.191 99.675C148.565 97.3485 149.092 95.0489 149.768 92.7909C149.894 92.3989 150.026 92.0173 150.168 91.6409C151.797 90.7418 154.063 90.0728 155.073 91.5259C156.124 93.0941 154.741 96.7531 154.331 98.3212C152.838 104.003 150.388 109.434 149.637 115.299Z" fill="url(#paint9_linear)"/>
<path d="M187.452 69.9796C187.507 70.6296 187.487 71.2837 187.394 71.9294C187.341 72.2513 187.18 72.5456 186.936 72.7641C186.692 72.9826 186.381 73.1122 186.054 73.1316C184.414 73.0114 183.231 74.5743 181.927 75.5779C180.904 76.34 179.69 76.8071 178.417 76.9279C177.145 77.0487 175.863 76.8185 174.714 76.2627C174.486 76.181 174.234 76.1897 174.012 76.287C173.79 76.3843 173.614 76.5627 173.521 76.7854C173.357 77.2465 173.32 77.743 173.415 78.2228L174.02 83.9413C174.136 85.0442 174.146 86.3928 173.205 86.9887C172.264 87.5846 171.15 87.0671 170.372 86.3928C169.149 85.2233 168.264 83.7483 167.811 82.1223C166.783 78.8279 166.636 75.3241 167.383 71.9558C168.131 68.5875 169.748 65.4708 172.075 62.9125C172.949 61.9416 173.973 61.1158 175.108 60.4662C176.297 59.8527 177.574 59.4243 178.893 59.196C180.074 58.9189 181.295 58.8516 182.5 58.9974C184.117 59.2898 185.588 60.1168 186.674 61.3444C187.473 62.2121 188.251 64.7995 189.092 65.2229C188.467 66.8015 187.478 68.1972 187.452 69.9796Z" fill="#F5BCBA"/>
<path d="M174.939 47.5343C174.169 47.355 173.364 47.3784 172.605 47.6022C171.123 48.1249 170.292 49.667 169.756 51.1358C169.22 52.6046 168.778 54.2093 167.611 55.2495C166.607 56.1486 165.182 56.5093 164.278 57.5024C163.226 58.6576 163.127 60.3669 163.226 61.9194C163.226 63.0841 163.556 64.2253 164.178 65.2125C164.735 65.9652 165.592 66.4879 166.029 67.3033C166.523 68.239 166.691 69.6869 167.753 69.7496C168.196 69.7274 168.614 69.5409 168.925 69.2269C169.999 68.3044 170.808 67.116 171.27 65.7822C171.528 65.04 171.696 64.2141 172.264 63.6914C172.831 63.1687 173.988 63.1373 174.245 63.8795C174.318 64.3518 174.245 64.8348 174.035 65.2647C173.899 65.7247 173.956 66.3468 174.408 66.5036C175.26 65.1968 175.739 63.66 176.748 62.4734C177.321 61.8061 178.039 61.278 178.849 60.9294C179.659 60.5808 180.538 60.4211 181.419 60.4625C182.301 60.5039 183.161 60.7452 183.934 61.1681C184.707 61.5909 185.373 62.1841 185.88 62.9021C186.405 63.6496 186.763 64.5382 187.499 65.0713C188.192 65.4914 188.985 65.7222 189.796 65.7404C191.605 65.9181 193.518 65.9861 195.148 65.1863C196.778 64.3866 197.982 62.4473 197.356 60.7485C196.862 59.4156 195.453 58.6576 194.086 58.229C192.719 57.8004 191.258 57.5861 190.054 56.8229C188.419 55.7775 187.546 53.9166 186.595 52.2283C185.643 50.5399 184.355 48.8045 182.452 48.4072C181.675 48.287 180.884 48.287 180.107 48.4072C179.349 48.5671 178.573 48.6269 177.799 48.5849C176.853 48.3915 175.938 47.7538 174.939 47.5343Z" fill="#2E2E3F"/>
<path d="M174.94 90.4857C176.14 96.5327 176.494 102.716 175.991 108.859C175.576 113.971 174.587 119.047 174.624 124.175C174.701 125.617 174.657 127.063 174.493 128.497C174.261 129.919 164.672 129.376 163.274 129.36C160.919 129.329 163.905 132.496 162.133 130.97C159.352 128.56 158.111 124.802 157.77 121.153C157.281 115.952 158.353 110.746 159.52 105.65C160.33 102.121 161.192 98.5826 162.643 95.2633C164.441 91.16 167.285 85.9381 168.2 81.5525C168.331 80.9096 166.097 78.5731 167.059 78.6044C167.685 78.6044 167.39 79.5714 167.501 80.0523C167.698 80.7846 168.076 81.4565 168.599 82.0073C169.333 82.8586 170.326 83.4479 171.428 83.6852C172.137 83.8159 172.947 83.7845 173.462 84.2863C174.088 84.8927 173.988 86.074 174.167 86.8999C174.424 88.0812 174.698 89.2782 174.94 90.4857Z" fill="#F2F2F2"/>
<path d="M153.654 74.935C151.11 76.0954 148.923 77.8935 146.857 79.7753C145.146 81.3075 143.531 82.9414 142.02 84.6679C140.685 86.2361 139.465 87.8617 138.056 89.341C136.111 91.3743 133.682 93.3397 133.298 96.1363C133.181 97.5945 133.438 99.0586 134.045 100.391C134.545 101.752 135.284 103.014 136.226 104.118C137.423 105.434 139.001 106.347 140.742 106.732C141.288 106.873 141.858 106.898 142.414 106.805C143.197 106.583 143.918 106.182 144.517 105.634C145.887 104.603 147.186 103.48 148.402 102.273C149.643 100.992 150.694 99.5339 151.903 98.2219C152.955 97.0928 154.075 96.0735 155.126 94.9654C156.383 93.6377 157.502 92.1898 158.622 90.7419C160.206 88.7779 161.659 86.7122 162.97 84.5582C164.065 82.6572 164.934 80.6365 165.562 78.5365C165.966 77.167 166.613 75.4316 165.215 74.4436C162.244 72.3632 156.614 73.5602 153.654 74.935Z" fill="#3269B1"/>
<path d="M153.654 74.935C151.11 76.0954 148.923 77.8935 146.857 79.7753C145.146 81.3075 143.531 82.9414 142.02 84.6679C140.685 86.2361 139.465 87.8617 138.056 89.341C136.111 91.3743 133.682 93.3397 133.298 96.1363C133.181 97.5945 133.438 99.0586 134.045 100.391C134.545 101.752 135.284 103.014 136.226 104.118C137.423 105.434 139.001 106.347 140.742 106.732C141.288 106.873 141.858 106.898 142.414 106.805C143.197 106.583 143.918 106.182 144.517 105.634C145.887 104.603 147.186 103.48 148.402 102.273C149.643 100.992 150.694 99.5339 151.903 98.2219C152.955 97.0928 154.075 96.0735 155.126 94.9654C156.383 93.6377 157.502 92.1898 158.622 90.7419C160.206 88.7779 161.659 86.7122 162.97 84.5582C164.065 82.6572 164.934 80.6365 165.562 78.5365C165.966 77.167 166.613 75.4316 165.215 74.4436C162.244 72.3632 156.614 73.5602 153.654 74.935Z" fill="#20BF7A"/>
<path d="M197.725 98.8021C197.156 99.1592 196.75 99.7223 196.592 100.372C196.434 101.022 196.537 101.708 196.878 102.283C197.761 103.81 198.945 105.143 200.359 106.204C201.2 107.103 203.092 107.249 204.775 106.266C206.457 105.284 214.485 100.94 218.496 98.1017C218.79 97.9006 219.04 97.6419 219.231 97.3416C219.421 97.0412 219.548 96.7055 219.603 96.3548C219.659 96.004 219.642 95.6457 219.554 95.3017C219.466 94.9577 219.308 94.6352 219.09 94.3538L215.731 90.1721C215.333 89.6772 214.765 89.3459 214.136 89.2417C213.507 89.1375 212.862 89.2678 212.324 89.6076L197.725 98.8021Z" fill="#3D3D54"/>
<path d="M144.37 143.855C144.963 146.02 146.015 148.034 147.456 149.762C149.033 151.591 151.178 152.898 153.239 154.142L161.918 159.395C163.191 160.123 164.409 160.942 165.561 161.847C168.406 164.178 170.293 167.429 172.128 170.607L184.787 192.546C185.428 193.67 186.327 194.94 187.626 194.898C188.325 194.808 188.983 194.517 189.518 194.062C191.143 192.927 192.888 191.636 193.372 189.718C193.708 188.38 193.372 186.974 192.967 185.646C191.022 179.107 187.973 172.949 184.913 166.828C180.052 157.141 175.119 147.472 170.114 137.823C168.784 135.261 167.17 131.273 164.973 129.391C164.973 129.391 144.554 128.158 144.039 130.17C142.891 134.676 143.006 139.409 144.37 143.855Z" fill="#525263"/>
<path d="M144.37 143.855C144.963 146.02 146.015 148.034 147.456 149.762C149.033 151.591 151.178 152.898 153.239 154.142L161.918 159.395C163.191 160.123 164.409 160.942 165.561 161.847C168.406 164.178 170.293 167.429 172.128 170.607L184.787 192.546C185.428 193.67 186.327 194.94 187.626 194.898C188.325 194.808 188.983 194.517 189.518 194.062C191.143 192.927 192.888 191.636 193.372 189.718C193.708 188.38 193.372 186.974 192.967 185.646C191.022 179.107 187.973 172.949 184.913 166.828C180.052 157.141 175.119 147.472 170.114 137.823C168.784 135.261 167.17 131.273 164.973 129.391C164.973 129.391 144.554 128.158 144.039 130.17C142.891 134.676 143.006 139.409 144.37 143.855Z" fill="url(#paint10_linear)"/>
<path d="M167.333 72.0705L164.447 73.2048L162.696 82.943L168.516 82.6816L167.333 72.0705Z" fill="#3269B1"/>
<path d="M173.441 82.4464C173.441 82.8855 173.441 83.3246 173.441 83.7636C173.441 83.954 173.452 84.1442 173.473 84.3334C173.504 84.5255 173.546 84.7157 173.599 84.9032L174.324 87.7467L174.624 83.1259C175.481 83.5389 176.359 83.9152 177.253 84.2445C177.185 83.552 177.008 82.8746 176.727 82.2373C176.201 80.8992 175.718 79.5558 175.15 78.2438C175.017 77.8933 174.825 77.568 174.582 77.282C174.459 77.1401 174.305 77.0285 174.132 76.956C173.959 76.8834 173.771 76.8519 173.583 76.8638C173.057 77.0834 173.389 79.0435 173.394 79.4774L173.441 82.4464Z" fill="#3269B1"/>
<path d="M215.972 96.5126L205.29 103.229C205.103 103.33 204.886 103.364 204.677 103.326C204.468 103.288 204.278 103.18 204.138 103.02L200.742 99.215C200.673 99.1502 200.618 99.0705 200.584 98.9818C200.55 98.8932 200.536 98.798 200.544 98.7034C200.552 98.6087 200.582 98.5172 200.631 98.4356C200.68 98.354 200.747 98.2845 200.826 98.2323L211.53 91.5207C211.717 91.4202 211.933 91.3862 212.143 91.4242C212.352 91.4622 212.542 91.57 212.681 91.7298L216.078 95.5299C216.146 95.5962 216.199 95.6772 216.232 95.7667C216.264 95.8563 216.276 95.952 216.266 96.0467C216.256 96.1414 216.224 96.2326 216.173 96.3133C216.122 96.394 216.054 96.4622 215.972 96.5126Z" fill="#3269B1"/>
</g>
<defs>
<linearGradient id="paint0_linear" x1="168.442" y1="100.307" x2="190.017" y2="99.9744" gradientUnits="userSpaceOnUse">
<stop offset="0.01"/>
<stop offset="0.13" stop-opacity="0.69"/>
<stop offset="1" stop-opacity="0"/>
</linearGradient>
<linearGradient id="paint1_linear" x1="40479.8" y1="6143.72" x2="20256.4" y2="37487.1" gradientUnits="userSpaceOnUse">
<stop offset="0.01"/>
<stop offset="0.13" stop-opacity="0.69"/>
<stop offset="1" stop-opacity="0"/>
</linearGradient>
<linearGradient id="paint2_linear" x1="11101.3" y1="12228.5" x2="6300.19" y2="15364.1" gradientUnits="userSpaceOnUse">
<stop offset="0.01"/>
<stop offset="0.13" stop-opacity="0.69"/>
<stop offset="1" stop-opacity="0"/>
</linearGradient>
<linearGradient id="paint3_linear" x1="2604.18" y1="5076.67" x2="4788.07" y2="5856.95" gradientUnits="userSpaceOnUse">
<stop offset="0.01"/>
<stop offset="0.13" stop-opacity="0.69"/>
<stop offset="1" stop-opacity="0"/>
</linearGradient>
<linearGradient id="paint4_linear" x1="11393.4" y1="14425.6" x2="16068.4" y2="14425.6" gradientUnits="userSpaceOnUse">
<stop offset="0.01"/>
<stop offset="0.13" stop-opacity="0.69"/>
<stop offset="1" stop-opacity="0"/>
</linearGradient>
<linearGradient id="paint5_linear" x1="5475" y1="5152.36" x2="5039.99" y2="5028.38" gradientUnits="userSpaceOnUse">
<stop offset="0.01"/>
<stop offset="0.13" stop-opacity="0.69"/>
<stop offset="1" stop-opacity="0"/>
</linearGradient>
<linearGradient id="paint6_linear" x1="4429" y1="7302.82" x2="4808.57" y2="7302.82" gradientUnits="userSpaceOnUse">
<stop offset="0.01"/>
<stop offset="0.13" stop-opacity="0.69"/>
<stop offset="1" stop-opacity="0"/>
</linearGradient>
<linearGradient id="paint7_linear" x1="849.16" y1="923.202" x2="996.734" y2="963.119" gradientUnits="userSpaceOnUse">
<stop offset="0.01"/>
<stop offset="0.13" stop-opacity="0.69"/>
<stop offset="1" stop-opacity="0"/>
</linearGradient>
<linearGradient id="paint8_linear" x1="1902.07" y1="2019.3" x2="1531.13" y2="2060.12" gradientUnits="userSpaceOnUse">
<stop offset="0.01"/>
<stop offset="0.13" stop-opacity="0.69"/>
<stop offset="1" stop-opacity="0"/>
</linearGradient>
<linearGradient id="paint9_linear" x1="2351.3" y1="5766.73" x2="3096.01" y2="5759.02" gradientUnits="userSpaceOnUse">
<stop offset="0.01"/>
<stop offset="0.13" stop-opacity="0.69"/>
<stop offset="1" stop-opacity="0"/>
</linearGradient>
<linearGradient id="paint10_linear" x1="12279.8" y1="16517.1" x2="16098.9" y2="15292" gradientUnits="userSpaceOnUse">
<stop offset="0.01"/>
<stop offset="0.13" stop-opacity="0.69"/>
<stop offset="1" stop-opacity="0"/>
</linearGradient>
<clipPath id="clip0">
<rect x="62" y="38" width="185" height="207" fill="white"/>
</clipPath>
</defs>
</svg>
