<svg width="296" height="241" viewBox="0 0 296 241" fill="none" xmlns="http://www.w3.org/2000/svg">
<ellipse cx="136" cy="120.5" rx="136" ry="120.5" fill="white"/>
<g clip-path="url(#clip0)">
<path opacity="0.24" d="M284.948 186.724C282.997 194.72 281.247 201.822 278.823 208.117C274.041 220.568 266.648 229.861 250.007 236.493C229.392 244.7 206.611 240.169 185.838 235.008C169.001 230.813 152.04 225.974 134.701 226.204C122.053 226.373 108.931 229.188 97.1055 224.715C89.6218 221.884 83.7161 216.478 79.1399 209.861C75.0274 203.922 72.0387 196.983 70.0112 190.063C62.3602 163.754 65.7601 134.398 79.2164 110.573C83.8787 102.303 89.684 94.6771 93.782 86.1188C100.52 72.0584 102.925 55.1531 114.373 44.6198C127.356 32.6593 147.134 33.2408 164.674 34.8794C182.778 36.5805 202.283 39.2907 215.362 51.9864C227.608 63.8652 232.285 82.8416 246.631 92.0726C256.778 98.5983 269.976 98.9203 280.047 105.58C308.796 124.663 291.136 161.38 284.948 186.724Z" fill="#77A1D8"/>
<path d="M159.783 107.493C157.87 108.55 155.336 108.862 154.265 110.77C153.155 112.76 154.351 115.311 153.786 117.498C153.432 118.834 152.457 119.9 151.979 121.212C151.228 123.23 151.797 125.537 152.935 127.373C154.073 129.208 155.752 130.611 157.392 131.995C157.975 132.476 158.626 133.009 159.391 133.029C159.967 133.01 160.519 132.793 160.954 132.413C162.246 131.404 162.92 129.819 163.747 128.396C164.574 126.974 165.779 125.566 167.41 125.388C168.39 125.278 169.385 125.648 170.36 125.503C172.158 125.244 173.292 123.375 173.679 121.592C174.066 119.809 173.976 117.921 174.612 116.21C175.625 113.461 178.365 111.539 179.073 108.69C179.623 106.45 178.796 104.115 177.849 102.015C176.123 98.1706 171.747 92.0342 167.702 96.6233C164.742 99.987 163.905 105.191 159.783 107.493Z" fill="#606161"/>
<path d="M159.783 107.493C157.87 108.55 155.336 108.862 154.265 110.77C153.155 112.76 154.351 115.311 153.786 117.498C153.432 118.834 152.457 119.9 151.979 121.212C151.228 123.23 151.797 125.537 152.935 127.373C154.073 129.208 155.752 130.611 157.392 131.995C157.975 132.476 158.626 133.009 159.391 133.029C159.967 133.01 160.519 132.793 160.954 132.413C162.246 131.404 162.92 129.819 163.747 128.396C164.574 126.974 165.779 125.566 167.41 125.388C168.39 125.278 169.385 125.648 170.36 125.503C172.158 125.244 173.292 123.375 173.679 121.592C174.066 119.809 173.976 117.921 174.612 116.21C175.625 113.461 178.365 111.539 179.073 108.69C179.623 106.45 178.796 104.115 177.849 102.015C176.123 98.1706 171.747 92.0342 167.702 96.6233C164.742 99.987 163.905 105.191 159.783 107.493Z" fill="url(#paint0_linear)"/>
<path opacity="0.24" d="M278.823 208.117C274.041 220.568 266.649 229.861 250.008 236.493C229.393 244.7 206.612 240.169 185.839 235.008C169.002 230.813 152.041 225.974 134.702 226.204C122.053 226.372 108.932 229.188 97.1062 224.715C89.6226 221.884 83.7169 216.478 79.1406 209.861C93.0368 201.611 118.807 205.589 130.632 205.777C158.472 206.203 186.313 206.642 214.153 207.093C235.716 207.43 257.273 207.771 278.823 208.117Z" fill="#3269B1"/>
<path opacity="0.6" d="M145.872 213.931L144.39 219.938C144.362 220.183 144.282 220.419 144.154 220.629C144.026 220.839 143.853 221.018 143.649 221.154C143.16 221.314 142.63 221.285 142.161 221.072C133.96 218.444 126.665 213.538 121.121 206.92C137.937 206.699 154.754 206.663 171.57 206.81C172.431 206.81 173.359 206.848 174.028 207.329C174.803 207.886 174.984 208.857 175.185 209.732C176.075 213.616 178.007 217.18 180.771 220.039C188.202 227.804 172.029 222.696 168.682 221.745C166.607 221.178 145.6 215.046 145.872 213.931Z" fill="#3269B1"/>
<path d="M181.526 220.356C181.509 220.657 181.566 220.958 181.694 221.231C181.845 221.43 182.037 221.594 182.258 221.711C182.478 221.828 182.721 221.896 182.971 221.908C184.399 222.138 185.863 222.011 187.231 221.538C187.41 221.498 187.568 221.394 187.676 221.245C187.738 221.091 187.738 220.919 187.676 220.765C187.47 220.078 186.82 219.635 186.437 219.03C185.4 217.387 186.552 215.157 185.959 213.297C185.682 212.389 182.048 213.778 181.684 214.609C181.053 216.113 181.488 218.737 181.526 220.356Z" fill="#F5C7C8"/>
<path d="M169.122 157.387L165.191 165.22L164.746 189.866L148.784 185.33L145.279 190.135L167.066 199.203C168.356 199.213 169.614 198.8 170.65 198.027C171.686 197.253 172.442 196.161 172.804 194.917L181.148 166.272L180.67 215.426L186.38 216.195L195.848 157.757L169.122 157.387Z" fill="#606161"/>
<path d="M169.122 157.387L165.191 165.22L164.746 189.866L148.784 185.33L145.279 190.135L167.066 199.203C168.356 199.213 169.614 198.8 170.65 198.027C171.686 197.253 172.442 196.161 172.804 194.917L181.148 166.272L180.67 215.426L186.38 216.195L195.848 157.757L169.122 157.387Z" fill="url(#paint1_linear)"/>
<path d="M141.831 181.942C141.616 181.854 141.383 181.819 141.152 181.841C140.943 181.893 140.747 181.99 140.578 182.125C136.609 184.926 134.414 189.737 133.721 194.561C133.578 195.522 133.659 196.786 134.572 197.118C134.829 197.199 135.101 197.219 135.366 197.175C136.987 196.983 138.312 195.796 139.34 194.523C140.368 193.249 141.224 191.812 142.477 190.765C142.75 190.568 142.997 190.337 143.213 190.078C143.419 189.753 143.568 189.396 143.653 189.021C143.896 188.201 144.193 187.398 144.543 186.618C144.901 185.825 145.671 184.936 145.886 184.124C146.101 183.312 145.332 183.225 144.519 182.899C143.706 182.572 142.74 182.226 141.831 181.942Z" fill="#2E9B9B"/>
<path d="M187.178 219.602C187.417 219.497 187.673 219.44 187.934 219.434C188.193 219.472 188.441 219.568 188.66 219.712L193.849 222.596C194.536 222.922 195.154 223.377 195.671 223.936C195.925 224.219 196.096 224.568 196.164 224.943C196.232 225.318 196.196 225.705 196.058 226.06C195.546 227.117 194.112 227.209 192.945 227.146C190.345 227.087 187.754 226.812 185.198 226.325C183.558 225.959 181.851 225.363 180.809 224.047C179.766 222.73 179.522 220.539 181.287 220.126C182.061 219.948 183.271 220.356 184.113 220.284C185.16 220.193 186.191 219.964 187.178 219.602Z" fill="#2E9B9B"/>
<path d="M204.029 172.466C200.682 171.37 197.071 171.817 193.566 172.077C181.804 172.93 169.988 171.499 158.764 167.863C162.331 162.322 163.546 155.633 164.837 149.165C167.339 136.748 170.451 124.478 174.171 112.356C174.448 111.443 174.773 110.472 175.529 109.891C176.285 109.309 177.351 109.252 178.326 109.252C184.38 109.252 195.412 108.891 200.749 112.274C204.45 114.619 201.873 124.562 201.982 128.771C202.174 136.128 202.853 143.456 203.388 150.794C203.537 152.827 203.594 172.303 204.029 172.466Z" fill="#3269B1"/>
<path d="M204.039 172.437C200.692 171.356 197.063 171.803 193.567 172.048C184.257 172.722 174.9 171.965 165.818 169.804C163.455 169.237 161.107 168.588 158.793 167.829C162.36 162.308 163.575 155.604 164.871 149.155C166.442 141.284 168.271 133.48 170.356 125.744C171.551 121.259 172.826 116.791 174.181 112.342C174.444 111.429 174.784 110.419 175.525 109.857C176.266 109.295 177.356 109.218 178.327 109.228C184.386 109.199 195.418 108.877 200.749 112.241C204.46 114.595 201.887 124.533 201.983 128.752C202.179 136.104 202.863 143.437 203.394 150.77C203.532 152.827 203.595 172.312 204.039 172.437Z" fill="url(#paint2_linear)"/>
<path d="M184.466 145.696C181.057 147.815 176.208 147.084 172.832 145.292C172.301 144.994 171.732 144.686 171.177 144.874C170.705 145.113 170.344 145.529 170.173 146.032C168.739 149.343 168.806 153.067 168.552 156.681C168.253 160.825 167.496 164.924 166.295 168.901C166.237 169.252 166.058 169.572 165.788 169.804C163.426 169.237 161.078 168.588 158.764 167.829C162.331 162.308 163.546 155.604 164.841 149.155C166.413 141.284 168.241 133.48 170.326 125.744C172.368 126.681 174.152 128.334 175.586 130.069C177.69 132.587 179.412 135.427 181.879 137.579C184.524 139.886 189.358 142.673 184.466 145.696Z" fill="url(#paint3_linear)"/>
<path d="M208.252 135.873C208.108 138.089 207.592 140.496 205.861 141.87C204.388 143.033 202.284 143.173 200.524 142.529C198.776 141.815 197.278 140.596 196.221 139.026C194.981 137.288 194.123 135.306 193.705 133.209C193.287 131.113 193.318 128.951 193.796 126.868C193.945 126.024 194.311 125.234 194.858 124.576C195.441 123.956 195.676 124.984 196.455 125.321C196.981 125.552 198.143 126.195 198.425 126.7C199.616 128.824 199.673 130.03 201.376 131.77C200.74 129.087 200.543 126.318 200.792 123.572C200.912 122.298 201.667 118.675 203.714 119.189C204.732 119.444 205.512 122.414 205.937 123.293C207.776 127.216 208.573 131.55 208.252 135.873Z" fill="#3269B1"/>
<path d="M208.252 135.873C208.108 138.089 207.592 140.496 205.861 141.87C204.388 143.033 202.284 143.173 200.524 142.529C198.776 141.815 197.278 140.596 196.221 139.026C194.981 137.288 194.123 135.306 193.705 133.209C193.287 131.113 193.318 128.951 193.796 126.868C193.945 126.024 194.311 125.234 194.858 124.576C195.441 123.956 195.676 124.984 196.455 125.321C196.981 125.552 198.143 126.195 198.425 126.7C199.616 128.824 199.673 130.03 201.376 131.77C200.74 129.087 200.543 126.318 200.792 123.572C200.912 122.298 201.667 118.675 203.714 119.189C204.732 119.444 205.512 122.414 205.937 123.293C207.776 127.216 208.573 131.55 208.252 135.873Z" fill="url(#paint4_linear)"/>
<path d="M188.47 120.222C204.849 120.222 218.127 106.879 218.127 90.4197C218.127 73.9601 204.849 60.6169 188.47 60.6169C172.091 60.6169 158.812 73.9601 158.812 90.4197C158.812 106.879 172.091 120.222 188.47 120.222Z" fill="#20BF7A"/>
<path d="M217.811 94.6819C216.971 100.502 214.436 105.943 210.525 110.318C206.613 114.693 201.501 117.807 195.831 119.267C190.162 120.728 184.189 120.469 178.665 118.524C173.142 116.579 168.315 113.035 164.793 108.338C161.27 103.641 159.21 98.001 158.872 92.1294C158.534 86.2578 159.932 80.4169 162.891 75.3427C165.851 70.2685 170.238 66.188 175.502 63.6154C180.765 61.0427 186.668 60.093 192.467 60.8859L192.701 60.9195C196.557 61.4782 200.265 62.7948 203.614 64.7942C206.962 66.7936 209.886 69.4366 212.218 72.572C214.55 75.7075 216.244 79.274 217.204 83.0677C218.164 86.8615 218.37 90.808 217.811 94.6819Z" fill="url(#paint5_linear)"/>
<path d="M217.811 94.682C216.886 101.137 213.879 107.108 209.252 111.68C204.625 116.252 198.632 119.172 192.195 119.992L191.956 119.958C184.834 118.951 178.32 115.376 173.627 109.901C168.933 104.426 166.38 97.423 166.443 90.1966C166.505 82.9703 169.179 76.0131 173.967 70.6208C178.755 65.2286 185.33 61.7688 192.467 60.886L192.702 60.9196C196.557 61.4783 200.265 62.7949 203.614 64.7943C206.963 66.7937 209.886 69.4367 212.218 72.5721C214.55 75.7076 216.244 79.2741 217.204 83.0678C218.164 86.8615 218.37 90.8081 217.811 94.682Z" fill="url(#paint6_linear)"/>
<path d="M179.561 81.227C179.561 81.227 177.227 77.2866 174.779 79.3481C172.33 81.4096 172.675 86.6763 179.379 90.6887C179.379 90.6887 187.7 86.5033 185.533 81.4096C183.367 76.3159 179.561 81.227 179.561 81.227Z" fill="#1EA96C"/>
<path d="M198.363 82.1256C198.363 82.1256 196.03 78.19 193.582 80.2515C191.133 82.313 191.478 87.5796 198.182 91.5921C198.182 91.5921 206.502 87.4018 204.336 82.313C202.17 77.2241 198.363 82.1256 198.363 82.1256Z" fill="#1EA96C"/>
<path d="M174.319 98.8914L204.264 99.0452C204.264 99.0452 202.284 110.895 189.578 110.722C174.525 110.52 174.319 98.8914 174.319 98.8914Z" fill="#1EA96C"/>
<path d="M174.319 98.8914L204.264 99.0452C204.264 99.0452 202.284 110.895 189.578 110.722C174.525 110.52 174.319 98.8914 174.319 98.8914Z" fill="url(#paint7_linear)"/>
<path d="M197.79 126.695C197.79 126.695 198.971 123.98 202.572 123.245C204.867 122.764 205.818 118.267 205.407 116.782C204.996 115.297 204.116 114.701 203.375 115.143C202.634 115.585 201.252 120.371 200.161 120.203C199.071 120.035 201.194 117.455 200.353 117.243C199.511 117.032 199.176 118.079 197.799 119.473C196.3 120.989 195.166 122.83 194.485 124.855C194.485 124.855 195.944 126.479 197.79 126.695Z" fill="#F5C7C8"/>
<path d="M187.609 127.551C186.53 126.033 185.02 124.879 183.276 124.24C181.067 123.456 179.723 119.473 180.039 117.964C180.354 116.455 181.196 115.806 181.952 116.2C182.707 116.594 184.4 121.284 185.476 121.049C186.552 120.813 184.276 118.372 185.098 118.108C185.921 117.844 186.576 118.632 187.79 120.174C189.084 121.891 190.171 123.755 191.028 125.729C190.055 126.611 188.88 127.236 187.609 127.551Z" fill="#F5C7C8"/>
<path d="M187.221 125.071C187.058 125.507 186.963 125.966 186.939 126.431C186.692 128.645 186.298 130.839 185.758 133C185.728 133.212 185.631 133.41 185.481 133.562C185.003 133.942 184.405 133.336 184.123 132.808L178.767 122.832C178.188 121.626 177.463 120.496 176.61 119.468C175.721 118.507 174.387 116.335 173.072 116.186C171.757 116.037 162.638 118.305 167.702 130.703C168.897 133.629 170.738 136.243 172.593 138.805C174.215 141.049 175.989 143.351 178.513 144.461C181.177 145.633 184.381 145.249 186.891 143.769C189.381 142.206 191.277 139.849 192.276 137.075C193.669 133.376 193.689 129.297 192.333 125.585C191.932 124.499 191.272 122.976 189.942 123.106C189.373 123.213 188.835 123.445 188.364 123.784C187.894 124.124 187.504 124.563 187.221 125.071Z" fill="#3269B1"/>
<path d="M187.221 125.071C187.058 125.507 186.963 125.966 186.939 126.431C186.692 128.645 186.298 130.839 185.758 133C185.728 133.212 185.631 133.41 185.481 133.562C185.003 133.942 184.405 133.336 184.123 132.808L178.767 122.832C178.188 121.626 177.463 120.496 176.61 119.468C175.721 118.507 174.387 116.335 173.072 116.186C171.757 116.037 162.638 118.305 167.702 130.703C168.897 133.629 170.738 136.243 172.593 138.805C174.215 141.049 175.989 143.351 178.513 144.461C181.177 145.633 184.381 145.249 186.891 143.769C189.381 142.206 191.277 139.849 192.276 137.075C193.669 133.376 193.689 129.297 192.333 125.585C191.932 124.499 191.272 122.976 189.942 123.106C189.373 123.213 188.835 123.445 188.364 123.784C187.894 124.124 187.504 124.563 187.221 125.071Z" fill="url(#paint8_linear)"/>
<path d="M146.594 184.811C146.283 184.705 145.963 184.626 145.638 184.576C145.154 184.518 144.665 184.594 144.22 184.794C143.776 184.994 143.394 185.311 143.115 185.711C142.835 186.112 142.669 186.581 142.633 187.069C142.598 187.557 142.694 188.045 142.912 188.482C143.038 188.756 143.227 188.997 143.462 189.184C143.737 189.372 144.041 189.513 144.361 189.602C144.964 189.804 145.576 189.986 146.188 190.155C146.284 190.189 146.388 190.197 146.489 190.179C146.569 190.145 146.641 190.094 146.699 190.03L147.995 188.785C148.319 188.513 148.594 188.188 148.808 187.824C149.004 187.425 149.459 185.998 149.181 185.642C149.019 185.441 148.168 185.32 147.914 185.244L146.594 184.811Z" fill="#F5C7C8"/>
<path d="M133.301 118.738C133.301 118.738 130.967 114.802 128.519 116.863C126.071 118.925 126.415 124.192 133.119 128.204C133.119 128.204 141.44 124.014 139.274 118.925C137.107 113.836 133.301 118.738 133.301 118.738Z" fill="#3269B1"/>
<path d="M225.591 106.974C225.591 106.974 224.482 105.095 223.31 106.08C222.139 107.065 222.306 109.569 225.505 111.481C225.505 111.481 229.469 109.487 228.437 107.061C227.404 104.634 225.591 106.974 225.591 106.974Z" fill="#3269B1"/>
<path d="M145.169 150.775C145.169 150.775 143.424 147.834 141.592 149.376C139.761 150.919 140.024 154.84 145.026 157.839C145.026 157.839 151.242 154.71 149.616 150.909C147.99 147.108 145.169 150.775 145.169 150.775Z" fill="#3269B1"/>
<path d="M233.319 142.932C233.319 142.932 230.981 138.997 228.537 141.058C226.094 143.12 226.433 148.387 233.142 152.399C233.142 152.399 241.463 148.209 239.297 143.12C237.13 138.031 233.319 142.932 233.319 142.932Z" fill="#3269B1"/>
</g>
<defs>
<linearGradient id="paint0_linear" x1="156.345" y1="123.139" x2="168.411" y2="112.098" gradientUnits="userSpaceOnUse">
<stop stop-color="#010101" stop-opacity="0"/>
<stop offset="0.95" stop-color="#010101"/>
</linearGradient>
<linearGradient id="paint1_linear" x1="8914.33" y1="18284.7" x2="10135.3" y2="12727" gradientUnits="userSpaceOnUse">
<stop stop-color="#010101" stop-opacity="0"/>
<stop offset="0.95" stop-color="#141E2C"/>
</linearGradient>
<linearGradient id="paint2_linear" x1="9443.37" y1="13764.3" x2="11855.8" y2="2667.61" gradientUnits="userSpaceOnUse">
<stop stop-color="#010101" stop-opacity="0"/>
<stop offset="0.95" stop-color="#234E87"/>
</linearGradient>
<linearGradient id="paint3_linear" x1="4406.02" y1="8593.82" x2="7728.83" y2="9426.64" gradientUnits="userSpaceOnUse">
<stop stop-color="#010101" stop-opacity="0"/>
<stop offset="0.95" stop-color="#010101"/>
</linearGradient>
<linearGradient id="paint4_linear" x1="3768.4" y1="3872.91" x2="4363.83" y2="3967.69" gradientUnits="userSpaceOnUse">
<stop stop-color="#010101" stop-opacity="0"/>
<stop offset="0.95" stop-color="#010101"/>
</linearGradient>
<linearGradient id="paint5_linear" x1="152.964" y1="88.5737" x2="266.467" y2="94.4284" gradientUnits="userSpaceOnUse">
<stop stop-color="white" stop-opacity="0"/>
<stop offset="0.95" stop-color="white"/>
</linearGradient>
<linearGradient id="paint6_linear" x1="6596.56" y1="3809.97" x2="17256.9" y2="2951.18" gradientUnits="userSpaceOnUse">
<stop stop-color="white" stop-opacity="0"/>
<stop offset="0.95" stop-color="white"/>
</linearGradient>
<linearGradient id="paint7_linear" x1="7126.56" y1="1714.27" x2="7023.68" y2="2738.06" gradientUnits="userSpaceOnUse">
<stop stop-color="#010101" stop-opacity="0"/>
<stop offset="0.95" stop-color="#010101"/>
</linearGradient>
<linearGradient id="paint8_linear" x1="6087.74" y1="4788.73" x2="3497.71" y2="6141.62" gradientUnits="userSpaceOnUse">
<stop stop-color="#010101" stop-opacity="0"/>
<stop offset="0.95" stop-color="#3269B1"/>
</linearGradient>
<clipPath id="clip0">
<rect x="66" y="34" width="230" height="207" fill="white"/>
</clipPath>
</defs>
</svg>
