<svg width="680" height="334" viewBox="0 0 680 334" fill="none" xmlns="http://www.w3.org/2000/svg">
<g opacity="0.8">
<g opacity="0.5">
<g opacity="0.5">
<g opacity="0.5">
<g opacity="0.5">
<path opacity="0.5" d="M360.66 106.976C344.171 104.499 328.507 97.8248 314.973 87.5728C294.775 72.3669 252.592 46.4273 212.265 59.3627C156.685 77.1832 156.479 128.787 170.906 156.791C185.402 184.794 288.042 266.879 421.117 253.806C540.177 242.109 563.398 108.352 499.918 84.1325C444.819 63.147 425.995 116.677 360.66 106.976Z" fill="#CED3E6"/>
</g>
</g>
</g>
</g>
<g opacity="0.5">
<g opacity="0.5">
<g opacity="0.5">
<g opacity="0.5">
<path opacity="0.5" d="M532.07 92.8017C534.915 92.8017 537.222 90.3065 537.222 87.2285C537.222 84.1505 534.915 81.6553 532.07 81.6553C529.224 81.6553 526.917 84.1505 526.917 87.2285C526.917 90.3065 529.224 92.8017 532.07 92.8017Z" fill="#CED3E6"/>
</g>
</g>
</g>
</g>
<g opacity="0.8">
<g opacity="0.8">
<g opacity="0.8">
<g opacity="0.8">
<path opacity="0.8" d="M236.021 50.5827C237.601 50.3075 239.181 51.202 239.799 52.7157C240.761 55.3303 238.288 58.2201 234.921 56.9128C231.967 54.711 233.204 51.0643 236.021 50.5827Z" fill="#DCE6F8"/>
</g>
</g>
</g>
</g>
<g opacity="0.8">
<g opacity="0.8">
<path opacity="0.8" d="M558.986 44.2524C562.704 44.2524 565.718 41.2335 565.718 37.5095C565.718 33.7855 562.704 30.7666 558.986 30.7666C555.267 30.7666 552.253 33.7855 552.253 37.5095C552.253 41.2335 555.267 44.2524 558.986 44.2524Z" fill="#DCE6F8"/>
</g>
</g>
<g opacity="0.8">
<g opacity="0.8">
<path opacity="0.8" d="M251.663 53.6447C255.28 52.6294 257.39 48.8697 256.376 45.2473C255.362 41.6248 251.608 39.5114 247.991 40.5268C244.375 41.5421 242.264 45.3018 243.278 48.9242C244.292 52.5467 248.046 54.6601 251.663 53.6447Z" fill="#DCE6F8"/>
</g>
</g>
<g opacity="0.8">
<g opacity="0.8">
<g opacity="0.8">
<g opacity="0.8">
<path opacity="0.8" d="M525.185 247.984C526.696 247.434 528.414 247.984 529.238 249.36C530.681 251.7 528.757 255.002 525.185 254.383C522.024 252.801 522.574 249.016 525.185 247.984Z" fill="#DCE6F8"/>
</g>
</g>
</g>
</g>
<g opacity="0.8">
<g opacity="0.8">
<path opacity="0.8" d="M541.203 248.108C544.568 246.437 545.943 242.35 544.274 238.979C542.605 235.609 538.524 234.232 535.159 235.903C531.794 237.575 530.418 241.662 532.087 245.032C533.756 248.403 537.837 249.78 541.203 248.108Z" fill="#DCE6F8"/>
</g>
</g>
<g opacity="0.8">
<g opacity="0.8">
<path opacity="0.8" d="M546.345 31.3172C548.621 31.3172 550.467 29.4689 550.467 27.1889C550.467 24.9089 548.621 23.0605 546.345 23.0605C544.068 23.0605 542.223 24.9089 542.223 27.1889C542.223 29.4689 544.068 31.3172 546.345 31.3172Z" fill="#DCE6F8"/>
</g>
</g>
</g>
<g opacity="0.8">
<path opacity="0.8" d="M551 95.227C551 51.3022 520.301 3.13179 482.065 0.274222C481.379 0.192577 480.694 0.192577 480.009 0.110932C425.258 -2.90992 421.078 56.6937 371.535 65.6746C321.992 74.6555 284.167 49.3427 224.825 78.8981C171.582 105.433 157.123 254.679 313.632 260.639C438.894 265.456 551.069 226.267 551 95.227Z" fill="#DCE6F8"/>
</g>
<path d="M369 291C438.588 291 495 285.627 495 279C495 272.373 438.588 267 369 267C299.412 267 243 272.373 243 279C243 285.627 299.412 291 369 291Z" fill="#E8EFFA"/>
<path d="M451.071 280.434H283.577V273.14C283.577 267.085 288.455 262.2 294.501 262.2H440.148C446.193 262.2 451.071 267.085 451.071 273.14V280.434Z" fill="white"/>
<path d="M397.21 223.188H336.478L326.478 262.2H407.21L397.21 223.188Z" fill="#F2F7FF"/>
<path d="M333 238L399 231.879L396.996 223L336.012 223.086L333 238Z" fill="#CED3E6"/>
<path d="M496.758 61.9774V215.069C496.758 219.541 493.117 223.188 488.651 223.188H239.677C235.212 223.188 231.57 219.541 231.57 215.069V61.9774C231.57 57.5051 235.212 53.8584 239.677 53.8584H488.651C488.788 53.8584 488.926 53.8584 488.995 53.8584C489.063 53.8584 489.201 53.8584 489.269 53.8584C489.338 53.8584 489.407 53.8584 489.475 53.8584C489.613 53.8584 489.682 53.8584 489.819 53.9272C489.888 53.9272 489.956 53.9272 490.025 53.9272H490.094C490.162 53.9272 490.231 53.9272 490.3 53.996C494.01 54.7529 496.758 58.0555 496.758 61.9774Z" fill="white"/>
<path d="M366.843 217.821C369.955 217.821 372.477 215.295 372.477 212.179C372.477 209.063 369.955 206.537 366.843 206.537C363.732 206.537 361.21 209.063 361.21 212.179C361.21 215.295 363.732 217.821 366.843 217.821Z" fill="#CED3E6"/>
<path d="M490.3 53.996C490.231 53.996 490.162 53.996 490.094 53.9272H490.025C489.956 53.9272 489.888 53.9272 489.819 53.9272C489.682 53.9272 489.613 53.9272 489.475 53.8584C489.407 53.8584 489.338 53.8584 489.269 53.8584C489.201 53.8584 489.063 53.8584 488.995 53.8584C488.857 53.8584 488.788 53.8584 488.651 53.8584H239.677C235.212 53.8584 231.57 57.5051 231.57 61.9774V203.785H496.758V61.9774C496.758 58.0555 494.01 54.7529 490.3 53.996ZM486.246 189.542C486.246 190.781 485.285 191.744 484.048 191.744H244.28C243.043 191.744 242.082 190.781 242.082 189.542V66.5873C242.082 65.3489 243.043 64.3856 244.28 64.3856H484.048C485.285 64.3856 486.246 65.3489 486.246 66.5873V189.542Z" fill="#444053"/>
<path d="M486.247 66.5875V189.611C486.247 190.85 485.285 191.813 484.048 191.813H244.28C243.044 191.813 242.082 190.85 242.082 189.611V66.5875C242.082 65.349 243.044 64.3857 244.28 64.3857H484.048C485.285 64.3857 486.247 65.349 486.247 66.5875Z" fill="#45465F"/>
<path d="M405.135 93H254.865C254.387 93 254 93.3611 254 93.8066V177.193C254 177.639 254.387 178 254.865 178H405.135C405.613 178 406 177.639 406 177.193V93.8066C406 93.3611 405.613 93 405.135 93Z" fill="white"/>
<path d="M438.249 93H418.196C417.749 93 417.386 93.3674 417.386 93.8206V107.037C417.386 107.491 417.749 107.858 418.196 107.858H438.249C438.697 107.858 439.059 107.491 439.059 107.037V93.8206C439.059 93.3674 438.697 93 438.249 93Z" fill="white"/>
<path d="M472.534 93H444.932C444.82 93 444.729 93.0922 444.729 93.206V95.1578C444.729 95.2715 444.82 95.3638 444.932 95.3638H472.534C472.646 95.3638 472.738 95.2715 472.738 95.1578V93.206C472.738 93.0922 472.646 93 472.534 93Z" fill="white"/>
<path d="M472.534 98.0654H444.932C444.82 98.0654 444.729 98.1577 444.729 98.2714V100.223C444.729 100.337 444.82 100.429 444.932 100.429H472.534C472.646 100.429 472.738 100.337 472.738 100.223V98.2714C472.738 98.1577 472.646 98.0654 472.534 98.0654Z" fill="white"/>
<path d="M472.534 103.131H444.932C444.82 103.131 444.729 103.223 444.729 103.337V105.289C444.729 105.402 444.82 105.495 444.932 105.495H472.534C472.646 105.495 472.738 105.402 472.738 105.289V103.337C472.738 103.223 472.646 103.131 472.534 103.131Z" fill="white"/>
<path d="M438.249 116.3H418.196C417.749 116.3 417.386 116.667 417.386 117.12V130.337C417.386 130.79 417.749 131.158 418.196 131.158H438.249C438.697 131.158 439.059 130.79 439.059 130.337V117.12C439.059 116.667 438.697 116.3 438.249 116.3Z" fill="white"/>
<path d="M472.534 116.3H444.932C444.82 116.3 444.729 116.392 444.729 116.506V118.458C444.729 118.571 444.82 118.664 444.932 118.664H472.534C472.646 118.664 472.738 118.571 472.738 118.458V116.506C472.738 116.392 472.646 116.3 472.534 116.3Z" fill="white"/>
<path d="M472.534 121.365H444.932C444.82 121.365 444.729 121.457 444.729 121.571V123.523C444.729 123.637 444.82 123.729 444.932 123.729H472.534C472.646 123.729 472.738 123.637 472.738 123.523V121.571C472.738 121.457 472.646 121.365 472.534 121.365Z" fill="white"/>
<path d="M472.517 126.431H444.949C444.827 126.431 444.729 126.53 444.729 126.654V128.572C444.729 128.695 444.827 128.794 444.949 128.794H472.517C472.639 128.794 472.738 128.695 472.738 128.572V126.654C472.738 126.53 472.639 126.431 472.517 126.431Z" fill="white"/>
<path d="M438.249 139.601H418.196C417.749 139.601 417.386 139.968 417.386 140.421V153.638C417.386 154.091 417.749 154.459 418.196 154.459H438.249C438.697 154.459 439.059 154.091 439.059 153.638V140.421C439.059 139.968 438.697 139.601 438.249 139.601Z" fill="white"/>
<path d="M472.517 139.601H444.949C444.827 139.601 444.729 139.7 444.729 139.823V141.742C444.729 141.865 444.827 141.964 444.949 141.964H472.517C472.639 141.964 472.738 141.865 472.738 141.742V139.823C472.738 139.7 472.639 139.601 472.517 139.601Z" fill="white"/>
<path d="M472.517 144.665H444.949C444.827 144.665 444.729 144.765 444.729 144.888V146.806C444.729 146.929 444.827 147.029 444.949 147.029H472.517C472.639 147.029 472.738 146.929 472.738 146.806V144.888C472.738 144.765 472.639 144.665 472.517 144.665Z" fill="white"/>
<path d="M472.517 149.73H444.949C444.827 149.73 444.729 149.83 444.729 149.953V151.871C444.729 151.994 444.827 152.094 444.949 152.094H472.517C472.639 152.094 472.738 151.994 472.738 151.871V149.953C472.738 149.83 472.639 149.73 472.517 149.73Z" fill="white"/>
<path d="M438.249 162.9H418.196C417.749 162.9 417.386 163.268 417.386 163.721V176.938C417.386 177.391 417.749 177.758 418.196 177.758H438.249C438.697 177.758 439.059 177.391 439.059 176.938V163.721C439.059 163.268 438.697 162.9 438.249 162.9Z" fill="white"/>
<path d="M472.517 162.9H444.949C444.827 162.9 444.729 163 444.729 163.123V165.041C444.729 165.164 444.827 165.264 444.949 165.264H472.517C472.639 165.264 472.738 165.164 472.738 165.041V163.123C472.738 163 472.639 162.9 472.517 162.9Z" fill="white"/>
<path d="M472.517 167.966H444.949C444.827 167.966 444.729 168.066 444.729 168.189V170.107C444.729 170.23 444.827 170.33 444.949 170.33H472.517C472.639 170.33 472.738 170.23 472.738 170.107V168.189C472.738 168.066 472.639 167.966 472.517 167.966Z" fill="white"/>
<path d="M472.517 173.03H444.949C444.827 173.03 444.729 173.13 444.729 173.253V175.171C444.729 175.294 444.827 175.394 444.949 175.394H472.517C472.639 175.394 472.738 175.294 472.738 175.171V173.253C472.738 173.13 472.639 173.03 472.517 173.03Z" fill="white"/>
<path opacity="0.1" d="M310.268 110.286H275.98V112.086H310.268V110.286Z" fill="#497CCB"/>
<path opacity="0.1" d="M282.329 100.77H279.028V110.285H282.329V100.77Z" fill="#497CCB"/>
<path opacity="0.1" d="M287.155 100.77H283.854V110.285H287.155V100.77Z" fill="#497CCB"/>
<path opacity="0.1" d="M291.979 100.77H288.678V110.285H291.979V100.77Z" fill="#497CCB"/>
<path opacity="0.1" d="M296.804 100.77H293.503V110.285H296.804V100.77Z" fill="#497CCB"/>
<path opacity="0.1" d="M301.629 100.77H298.328V110.285H301.629V100.77Z" fill="#497CCB"/>
<path opacity="0.1" d="M306.457 100.77H303.156V110.285H306.457V100.77Z" fill="#497CCB"/>
<path opacity="0.1" d="M282.329 102.57H279.028V103.6H282.329V102.57Z" fill="#497CCB"/>
<path opacity="0.1" d="M287.155 102.57H283.854V103.6H287.155V102.57Z" fill="#497CCB"/>
<path opacity="0.1" d="M291.979 102.57H288.678V103.6H291.979V102.57Z" fill="#497CCB"/>
<path opacity="0.1" d="M296.804 102.57H293.503V103.6H296.804V102.57Z" fill="#497CCB"/>
<path opacity="0.1" d="M301.629 102.57H298.328V103.6H301.629V102.57Z" fill="#497CCB"/>
<path opacity="0.1" d="M306.457 102.57H303.156V103.6H306.457V102.57Z" fill="#497CCB"/>
<path opacity="0.1" d="M282.329 107.199H279.028V108.229H282.329V107.199Z" fill="#497CCB"/>
<path opacity="0.1" d="M287.155 107.199H283.854V108.229H287.155V107.199Z" fill="#497CCB"/>
<path opacity="0.1" d="M291.979 107.199H288.678V108.229H291.979V107.199Z" fill="#497CCB"/>
<path opacity="0.1" d="M296.804 107.199H293.503V108.229H296.804V107.199Z" fill="#497CCB"/>
<path opacity="0.1" d="M301.629 107.199H298.328V108.229H301.629V107.199Z" fill="#497CCB"/>
<path opacity="0.1" d="M306.457 107.199H303.156V108.229H306.457V107.199Z" fill="#497CCB"/>
<path opacity="0.1" d="M385.442 114.915H351.154V116.715H385.442V114.915Z" fill="#497CCB"/>
<path opacity="0.1" d="M357.503 105.399H354.202V114.915H357.503V105.399Z" fill="#497CCB"/>
<path opacity="0.1" d="M362.328 105.399H359.027V114.915H362.328V105.399Z" fill="#497CCB"/>
<path opacity="0.1" d="M367.153 105.399H363.852V114.915H367.153V105.399Z" fill="#497CCB"/>
<path opacity="0.1" d="M371.981 105.399H368.68V114.915H371.981V105.399Z" fill="#497CCB"/>
<path opacity="0.1" d="M376.806 105.399H373.505V114.915H376.806V105.399Z" fill="#497CCB"/>
<path opacity="0.1" d="M381.631 105.399H378.33V114.915H381.631V105.399Z" fill="#497CCB"/>
<path opacity="0.1" d="M357.503 107.199H354.202V108.229H357.503V107.199Z" fill="#497CCB"/>
<path opacity="0.1" d="M362.328 107.199H359.027V108.229H362.328V107.199Z" fill="#497CCB"/>
<path opacity="0.1" d="M367.153 107.199H363.852V108.229H367.153V107.199Z" fill="#497CCB"/>
<path opacity="0.1" d="M371.981 107.199H368.68V108.229H371.981V107.199Z" fill="#497CCB"/>
<path opacity="0.1" d="M376.806 107.199H373.505V108.229H376.806V107.199Z" fill="#497CCB"/>
<path opacity="0.1" d="M381.631 107.199H378.33V108.229H381.631V107.199Z" fill="#497CCB"/>
<path opacity="0.1" d="M357.503 111.829H354.202V112.859H357.503V111.829Z" fill="#497CCB"/>
<path opacity="0.1" d="M362.328 111.829H359.027V112.859H362.328V111.829Z" fill="#497CCB"/>
<path opacity="0.1" d="M367.153 111.829H363.852V112.859H367.153V111.829Z" fill="#497CCB"/>
<path opacity="0.1" d="M371.981 111.829H368.68V112.859H371.981V111.829Z" fill="#497CCB"/>
<path opacity="0.1" d="M376.806 111.829H373.505V112.859H376.806V111.829Z" fill="#497CCB"/>
<path opacity="0.1" d="M381.631 111.829H378.33V112.859H381.631V111.829Z" fill="#497CCB"/>
<path opacity="0.1" d="M385.442 128.031H351.154V129.831H385.442V128.031Z" fill="#497CCB"/>
<path opacity="0.1" d="M357.503 118.516H354.202V128.032H357.503V118.516Z" fill="#497CCB"/>
<path opacity="0.1" d="M362.328 118.516H359.027V128.032H362.328V118.516Z" fill="#497CCB"/>
<path opacity="0.1" d="M367.153 118.516H363.852V128.032H367.153V118.516Z" fill="#497CCB"/>
<path opacity="0.1" d="M371.981 118.516H368.68V128.032H371.981V118.516Z" fill="#497CCB"/>
<path opacity="0.1" d="M376.806 118.516H373.505V128.032H376.806V118.516Z" fill="#497CCB"/>
<path opacity="0.1" d="M381.631 118.516H378.33V128.032H381.631V118.516Z" fill="#497CCB"/>
<path opacity="0.1" d="M357.503 120.315H354.202V121.345H357.503V120.315Z" fill="#497CCB"/>
<path opacity="0.1" d="M362.328 120.315H359.027V121.345H362.328V120.315Z" fill="#497CCB"/>
<path opacity="0.1" d="M367.153 120.315H363.852V121.345H367.153V120.315Z" fill="#497CCB"/>
<path opacity="0.1" d="M371.981 120.315H368.68V121.345H371.981V120.315Z" fill="#497CCB"/>
<path opacity="0.1" d="M376.806 120.315H373.505V121.345H376.806V120.315Z" fill="#497CCB"/>
<path opacity="0.1" d="M381.631 120.315H378.33V121.345H381.631V120.315Z" fill="#497CCB"/>
<path opacity="0.1" d="M357.503 124.944H354.202V125.974H357.503V124.944Z" fill="#497CCB"/>
<path opacity="0.1" d="M362.328 124.944H359.027V125.974H362.328V124.944Z" fill="#497CCB"/>
<path opacity="0.1" d="M367.153 124.944H363.852V125.974H367.153V124.944Z" fill="#497CCB"/>
<path opacity="0.1" d="M371.981 124.944H368.68V125.974H371.981V124.944Z" fill="#497CCB"/>
<path opacity="0.1" d="M376.806 124.944H373.505V125.974H376.806V124.944Z" fill="#497CCB"/>
<path opacity="0.1" d="M381.631 124.944H378.33V125.974H381.631V124.944Z" fill="#497CCB"/>
<path opacity="0.1" d="M296.543 127.807C296.288 127.476 296.054 127.127 295.843 126.764L300.781 125.943L295.446 125.984C294.935 124.856 294.655 123.634 294.625 122.392C294.596 121.151 294.816 119.917 295.273 118.764L302.425 122.519L295.82 117.603C296.434 116.511 297.265 115.559 298.26 114.808C299.255 114.057 300.392 113.522 301.601 113.237C302.81 112.952 304.064 112.924 305.284 113.153C306.504 113.382 307.664 113.865 308.692 114.57C309.719 115.275 310.591 116.187 311.254 117.25C311.916 118.312 312.355 119.502 312.542 120.745C312.729 121.987 312.66 123.255 312.34 124.47C312.019 125.684 311.455 126.818 310.681 127.801C311.083 128.314 311.428 128.872 311.708 129.462L305.299 132.839L312.132 130.519C312.61 131.954 312.727 133.486 312.474 134.978C312.221 136.47 311.605 137.875 310.681 139.066C311.728 140.41 312.38 142.026 312.563 143.728C312.745 145.43 312.451 147.149 311.713 148.69C310.975 150.23 309.824 151.529 308.392 152.438C306.959 153.347 305.303 153.829 303.612 153.829C301.922 153.829 300.265 153.347 298.833 152.438C297.4 151.529 296.249 150.23 295.512 148.69C294.774 147.149 294.48 145.43 294.662 143.728C294.844 142.026 295.496 140.41 296.543 139.066C295.296 137.459 294.619 135.475 294.619 133.432C294.619 131.388 295.296 129.404 296.543 127.797V127.807Z" fill="#497CCB"/>
<path opacity="0.1" d="M312.608 133.44C312.609 135.481 311.93 137.463 310.681 139.066C311.728 140.41 312.38 142.026 312.563 143.728C312.745 145.43 312.451 147.149 311.713 148.69C310.975 150.23 309.824 151.529 308.392 152.438C306.959 153.347 305.303 153.829 303.612 153.829C301.922 153.829 300.265 153.347 298.833 152.438C297.4 151.529 296.249 150.23 295.512 148.69C294.774 147.149 294.48 145.43 294.662 143.728C294.844 142.026 295.496 140.41 296.543 139.066C295.333 137.523 312.608 132.417 312.608 133.44Z" fill="#497CCB"/>
<path opacity="0.2" d="M305.053 156.247C305.068 156.271 305.083 156.296 305.096 156.321H302.042C302.058 156.298 302.068 156.271 302.085 156.247C301.822 155.784 301.686 155.258 301.692 154.724C301.69 154.358 301.752 153.995 301.875 153.65C302.045 153.677 302.255 153.708 302.498 153.735C303.207 153.807 303.921 153.807 304.629 153.735C304.834 153.715 305.044 153.688 305.259 153.654C305.258 153.659 305.258 153.665 305.259 153.671C305.381 154.009 305.442 154.367 305.439 154.728C305.446 155.26 305.313 155.784 305.053 156.247Z" fill="#3F3D56"/>
<path opacity="0.1" d="M294.076 156.321H277.07C277.034 156.224 277 156.119 276.97 156.018C276.371 154.066 276.44 151.967 277.167 150.061C275.507 148.898 274.281 147.205 273.685 145.252C273.089 143.299 273.159 141.2 273.883 139.292C273.541 139.054 273.217 138.791 272.912 138.505L277.387 136.246L272.299 137.881C271.481 136.956 270.857 135.872 270.467 134.695C270.078 133.518 269.929 132.273 270.031 131.036L277.971 132.488L270.228 129.763C270.495 128.534 271.01 127.375 271.742 126.357C272.473 125.34 273.404 124.487 274.476 123.852C275.549 123.217 276.739 122.814 277.973 122.667C279.207 122.521 280.458 122.635 281.646 123.002C282.835 123.369 283.935 123.981 284.878 124.8C285.822 125.618 286.588 126.626 287.128 127.759C287.668 128.892 287.971 130.126 288.017 131.383C288.063 132.64 287.852 133.894 287.397 135.064C287.934 135.443 288.429 135.879 288.874 136.364L283.732 141.501L289.584 137.239C290.461 138.468 291.022 139.899 291.215 141.402C291.408 142.906 291.228 144.435 290.691 145.85C292.306 146.982 293.511 148.619 294.122 150.509C294.733 152.4 294.717 154.441 294.076 156.321Z" fill="#497CCB"/>
<path opacity="0.1" d="M294.076 156.321H277.07C277.034 156.223 277 156.119 276.97 156.017C276.371 154.066 276.44 151.967 277.167 150.061C275.566 148.94 290.581 138.893 290.878 139.873C291.477 141.825 291.408 143.925 290.681 145.833C292.301 146.965 293.511 148.604 294.124 150.498C294.737 152.392 294.72 154.438 294.076 156.321Z" fill="#497CCB"/>
<path opacity="0.1" d="M371.017 143.983C369.984 145.738 368.397 147.09 366.512 147.819C366.593 148.469 366.605 149.125 366.549 149.778L359.343 149.339L366.382 150.885C366.175 151.857 365.812 152.788 365.309 153.641C364.695 154.685 363.878 155.593 362.908 156.308H353.098V156.568H343.095C343.115 156.48 343.135 156.396 343.158 156.308C343.523 154.911 344.211 153.622 345.164 152.547C346.118 151.472 347.31 150.642 348.643 150.125C348.387 148.098 348.811 146.043 349.847 144.289C350.883 142.535 352.47 141.185 354.355 140.454C354.302 140.036 354.278 139.616 354.282 139.195L358.933 141.055L354.332 138.317C354.467 137.082 354.851 135.889 355.458 134.81C356.065 133.731 356.883 132.79 357.863 132.042L362.101 138.992L358.923 131.34C360.654 130.37 362.652 130.004 364.609 130.3C366.566 130.595 368.372 131.535 369.748 132.974C371.125 134.413 371.995 136.271 372.224 138.261C372.454 140.251 372.029 142.262 371.017 143.983Z" fill="#497CCB"/>
<path opacity="0.1" d="M365.309 153.654C364.695 154.699 363.878 155.606 362.908 156.322H353.098V156.582H343.095C343.115 156.494 343.135 156.41 343.158 156.322C343.523 154.925 344.211 153.636 345.164 152.56C346.118 151.485 347.31 150.655 348.643 150.139C348.56 149.463 350.497 149.565 353.081 150.004C358.146 150.865 365.652 153.073 365.309 153.654Z" fill="#497CCB"/>
<g opacity="0.1">
<path opacity="0.1" d="M348.107 116.569C347.957 116.9 347.755 117.204 347.507 117.468C347.043 117.961 346.427 118.342 345.95 118.818C344.523 120.264 344.553 122.377 343.416 123.992C343.309 124.174 343.141 124.311 342.942 124.377C342.509 124.491 342.135 124.093 341.942 123.742C341.721 123.314 341.555 122.86 341.445 122.391C341.422 122.509 341.398 122.627 341.378 122.729C341.182 123.927 341.38 125.157 341.942 126.23C342.125 126.568 342.499 126.977 342.942 126.865C343.141 126.797 343.309 126.66 343.416 126.477C344.553 124.863 344.523 122.762 345.95 121.307C346.427 120.821 347.043 120.443 347.507 119.956C347.858 119.596 348.115 119.153 348.256 118.668C348.397 118.182 348.416 117.669 348.314 117.174C348.263 116.967 348.193 116.764 348.107 116.569Z" fill="black"/>
<path opacity="0.1" d="M344.999 106.575C344.8 106.672 344.626 106.815 344.492 106.993C344.426 107.167 344.426 107.36 344.492 107.534C344.624 108.058 344.792 108.573 344.996 109.073C345.382 108.811 345.661 108.415 345.78 107.959C345.899 107.504 345.85 107.02 345.643 106.598C345.578 106.459 345.5 106.327 345.409 106.203C345.291 106.346 345.153 106.471 344.999 106.575Z" fill="black"/>
<path opacity="0.1" d="M315.592 109.705C314.411 108.719 313.633 107.324 313.408 105.791C313.349 106.094 313.315 106.401 313.308 106.71C313.232 108.184 313.616 109.645 314.405 110.887C314.644 110.358 315.067 109.938 315.592 109.705Z" fill="black"/>
<path opacity="0.1" d="M341.388 120.264C341.515 119.505 341.795 118.698 341.414 118.002C340.991 117.225 339.911 116.888 338.92 116.692C337.93 116.496 336.85 116.33 336.159 115.706C335.815 115.348 335.533 114.933 335.326 114.48C334.856 113.639 334.202 112.791 333.182 112.434C331.558 111.856 329.674 112.683 327.94 112.396C327.44 112.312 326.967 112.136 326.463 112.059C325.615 111.933 324.749 112.017 323.939 112.302C321.568 113.092 320.024 115.084 319.317 117.141C318.61 119.197 318.594 121.369 318.37 123.503C318.314 124.023 317.974 124.718 317.37 124.59C317.307 123.756 317.23 122.902 316.723 122.169C316.444 121.778 316.055 121.482 315.608 121.317C315.16 121.152 314.674 121.126 314.212 121.244C313.932 121.18 313.683 121.019 313.509 120.788C313.546 121.097 313.546 121.41 313.509 121.72C313.415 122.097 313.364 122.483 313.355 122.871C313.398 123.087 313.504 123.286 313.659 123.44C313.814 123.595 314.012 123.699 314.226 123.739C314.688 123.622 315.174 123.648 315.622 123.814C316.069 123.979 316.458 124.277 316.737 124.668C317.243 125.387 317.32 126.255 317.383 127.086C317.987 127.214 318.327 126.522 318.384 125.998C318.607 123.867 318.624 121.696 319.331 119.636C320.038 117.576 321.581 115.584 323.952 114.797C324.762 114.513 325.628 114.43 326.476 114.554C326.98 114.639 327.453 114.818 327.953 114.892C329.687 115.182 331.571 114.352 333.195 114.929C334.216 115.294 334.862 116.135 335.339 116.975C335.547 117.429 335.828 117.843 336.173 118.201C336.863 118.829 337.943 118.991 338.934 119.187C339.924 119.383 340.934 119.7 341.378 120.416C341.361 120.366 341.378 120.315 341.388 120.264Z" fill="black"/>
<path opacity="0.1" d="M313.496 119.214C313.551 118.585 313.513 117.951 313.386 117.333C313.288 117.986 313.267 118.647 313.322 119.305C313.322 119.474 313.359 119.643 313.382 119.808C313.419 119.609 313.469 119.413 313.496 119.214Z" fill="black"/>
</g>
<path d="M296.707 170.207V164.112C296.707 164.066 296.725 164.022 296.757 163.99C296.789 163.957 296.832 163.939 296.877 163.939H297.561C297.606 163.939 297.649 163.957 297.681 163.99C297.713 164.022 297.731 164.066 297.731 164.112V166.647L300.505 164.044C300.57 163.989 300.649 163.953 300.734 163.942C300.818 163.93 300.903 163.943 300.981 163.978C301.058 164.013 301.125 164.069 301.172 164.141C301.219 164.212 301.246 164.296 301.249 164.382V169.903C301.246 169.989 301.219 170.072 301.172 170.144C301.125 170.215 301.058 170.271 300.981 170.307C300.903 170.342 300.818 170.354 300.734 170.343C300.649 170.331 300.57 170.295 300.505 170.24L297.731 167.654V170.176C297.731 170.222 297.713 170.266 297.681 170.298C297.649 170.33 297.606 170.348 297.561 170.348H296.877C296.837 170.349 296.797 170.335 296.766 170.309C296.735 170.283 296.714 170.247 296.707 170.207Z" fill="#444053"/>
<path d="M363.739 164.112V170.207C363.739 170.23 363.734 170.253 363.725 170.274C363.717 170.295 363.704 170.314 363.688 170.33C363.671 170.346 363.652 170.359 363.631 170.367C363.61 170.376 363.588 170.38 363.565 170.38H362.898C362.853 170.38 362.81 170.361 362.778 170.329C362.746 170.297 362.728 170.253 362.728 170.207V167.671L359.954 170.272C359.888 170.326 359.809 170.361 359.725 170.373C359.641 170.384 359.555 170.372 359.477 170.337C359.4 170.302 359.333 170.246 359.285 170.174C359.238 170.103 359.211 170.02 359.207 169.934V164.392C359.211 164.307 359.238 164.223 359.285 164.152C359.333 164.081 359.4 164.024 359.477 163.989C359.555 163.954 359.641 163.942 359.725 163.953C359.809 163.965 359.888 164 359.954 164.055L362.728 166.641V164.122C362.728 164.077 362.746 164.033 362.778 164.001C362.81 163.968 362.853 163.95 362.898 163.95H363.565C363.609 163.949 363.652 163.966 363.684 163.996C363.716 164.026 363.736 164.068 363.739 164.112Z" fill="#444053"/>
<path d="M329.09 170.471H327.733C327.556 170.471 327.387 170.4 327.262 170.273C327.137 170.146 327.066 169.975 327.066 169.796V164.751C327.066 164.571 327.137 164.4 327.262 164.273C327.387 164.146 327.556 164.075 327.733 164.075H329.09C329.267 164.075 329.437 164.146 329.562 164.273C329.687 164.4 329.757 164.571 329.757 164.751V169.796C329.757 169.975 329.687 170.146 329.562 170.273C329.437 170.4 329.267 170.471 329.09 170.471ZM333.392 169.796V164.751C333.392 164.571 333.322 164.4 333.196 164.273C333.071 164.146 332.902 164.075 332.725 164.075H331.354C331.178 164.075 331.008 164.146 330.883 164.273C330.758 164.4 330.688 164.571 330.688 164.751V169.796C330.688 169.975 330.758 170.146 330.883 170.273C331.008 170.4 331.178 170.471 331.354 170.471H332.712C332.8 170.473 332.888 170.457 332.971 170.423C333.053 170.39 333.128 170.341 333.192 170.278C333.255 170.215 333.305 170.14 333.34 170.057C333.374 169.974 333.392 169.885 333.392 169.796Z" fill="#444053"/>
<path opacity="0.6" d="M370.234 155.896H290.208V156.798H370.234V155.896Z" fill="#444053"/>
<path d="M314.919 158.483C316.085 158.483 317.03 157.526 317.03 156.346C317.03 155.165 316.085 154.208 314.919 154.208C313.754 154.208 312.809 155.165 312.809 156.346C312.809 157.526 313.754 158.483 314.919 158.483Z" fill="#444053"/>
<path d="M314.919 155.896H290.208V156.798H314.919V155.896Z" fill="#444053"/>
<path d="M486.247 66.5875V78.2156H242.082V66.5875C242.082 65.349 243.044 64.3857 244.28 64.3857H484.048C485.285 64.3857 486.247 65.349 486.247 66.5875Z" fill="white"/>
<path d="M465.499 72.9176C466.524 72.9176 467.354 72.0859 467.354 71.0599C467.354 70.0339 466.524 69.2021 465.499 69.2021C464.475 69.2021 463.645 70.0339 463.645 71.0599C463.645 72.0859 464.475 72.9176 465.499 72.9176Z" fill="#D0D2D5"/>
<path d="M471.545 72.9176C472.57 72.9176 473.4 72.0859 473.4 71.0599C473.4 70.0339 472.57 69.2021 471.545 69.2021C470.521 69.2021 469.69 70.0339 469.69 71.0599C469.69 72.0859 470.521 72.9176 471.545 72.9176Z" fill="#21B573"/>
<path d="M455.95 73.0547H265.097C264.204 73.0547 263.448 72.2979 263.448 71.4034V70.7841C263.448 69.8897 264.204 69.1328 265.097 69.1328H455.95C456.843 69.1328 457.598 69.8897 457.598 70.7841V71.4034C457.667 72.2979 456.911 73.0547 455.95 73.0547Z" fill="#D2DCEC"/>
<path d="M250.944 71.0601V72.9178C250.944 73.193 250.669 73.3306 250.463 73.193L248.883 72.2986L247.303 71.4041C247.097 71.2665 247.097 70.9225 247.303 70.8537L248.883 69.9592L250.463 69.0647C250.669 68.9271 250.944 69.0647 250.944 69.3399V71.0601Z" fill="black"/>
<path d="M253.692 71.0601V72.9178C253.692 73.193 253.967 73.3306 254.173 73.193L255.753 72.2986L257.334 71.4041C257.54 71.2665 257.54 70.9225 257.334 70.8537L255.753 69.9592L254.173 69.0647C253.967 68.9271 253.692 69.0647 253.692 69.3399V71.0601Z" fill="black"/>
<path d="M475.941 72.642L475.804 72.5044C475.598 72.298 475.598 72.0228 475.804 71.8852L478.346 69.3394C478.552 69.133 478.827 69.133 478.964 69.3394L479.102 69.477C479.308 69.6834 479.308 69.9586 479.102 70.0962L476.56 72.642C476.422 72.8484 476.147 72.8484 475.941 72.642Z" fill="#39393B"/>
<path d="M479.034 72.642L479.171 72.5044C479.377 72.298 479.377 72.0228 479.171 71.8852L476.629 69.3394C476.423 69.133 476.148 69.133 476.011 69.3394L475.873 69.477C475.667 69.6834 475.667 69.9586 475.873 70.0962L478.415 72.642C478.553 72.8484 478.827 72.8484 479.034 72.642Z" fill="#39393B"/>
<path d="M360.582 103.912C360.415 103.821 360.247 103.775 360.052 103.775C359.941 103.775 359.829 103.798 359.718 103.821L356.763 104.778L329.5 112.666L302.237 104.801L299.282 103.821C299.171 103.798 299.031 103.775 298.92 103.775C298.753 103.775 298.558 103.821 298.418 103.912C298.139 104.049 298 104.277 298 104.528V138.312C298 138.631 298.251 138.927 298.613 139.019L328.385 147.841C328.747 147.955 329.11 148 329.5 148C329.89 148 330.253 147.955 330.615 147.841L360.387 139.019C360.749 138.905 361 138.631 361 138.312V104.528C361 104.277 360.861 104.049 360.582 103.912Z" fill="#497CCB"/>
<path d="M357.098 103V137.331L360.08 138.403V104.619L357.098 103Z" fill="#AAD1FF"/>
<path d="M330.281 145.082C330.03 145.15 329.751 145.196 329.5 145.196C329.221 145.196 328.97 145.15 328.719 145.082L301.903 137.331L298.92 138.402L328.692 147.225C329.221 147.384 329.779 147.384 330.308 147.225L360.08 138.402L357.097 137.331L330.281 145.082Z" fill="#A5B7C6"/>
<path d="M301.903 103L298.92 104.619V138.403L301.903 137.331V103Z" fill="#F9FBFC"/>
<path d="M329.5 145.173C329.779 145.173 330.03 145.128 330.281 145.059L357.097 137.309V103L329.5 110.979V145.173Z" fill="white"/>
<path d="M352.414 130.31L332.26 136.123C332.121 136.169 332.037 136.306 332.093 136.42C332.148 136.534 332.316 136.602 332.455 136.557L352.609 130.744C352.749 130.698 352.832 130.561 352.777 130.447C352.721 130.333 352.582 130.288 352.414 130.31ZM352.414 127.94L332.26 133.775C332.121 133.821 332.037 133.958 332.093 134.072C332.148 134.186 332.316 134.254 332.455 134.209L352.609 128.396C352.749 128.35 352.832 128.213 352.777 128.099C352.721 127.962 352.582 127.894 352.414 127.94ZM352.414 125.569L332.26 131.382C332.121 131.427 332.037 131.564 332.093 131.678C332.148 131.792 332.316 131.861 332.455 131.815L352.609 126.002C352.749 125.956 352.832 125.82 352.777 125.706C352.721 125.592 352.582 125.523 352.414 125.569ZM352.414 132.704L332.26 138.54C332.121 138.585 332.037 138.722 332.093 138.836C332.148 138.95 332.316 139.019 332.455 138.973L352.609 133.137C352.749 133.092 352.832 132.955 352.777 132.841C352.721 132.704 352.582 132.658 352.414 132.704ZM332.455 112.803L352.609 106.967C352.749 106.921 352.832 106.785 352.777 106.671C352.721 106.557 352.554 106.488 352.414 106.534L332.26 112.37C332.121 112.415 332.037 112.552 332.093 112.666C332.148 112.803 332.316 112.848 332.455 112.803ZM352.414 135.075L332.26 140.911C332.121 140.956 332.037 141.093 332.093 141.207C332.148 141.321 332.316 141.389 332.455 141.344L352.609 135.508C352.749 135.462 352.832 135.326 352.777 135.212C352.721 135.098 352.582 135.029 352.414 135.075ZM352.414 111.321L332.26 117.134C332.121 117.18 332.037 117.316 332.093 117.43C332.148 117.544 332.316 117.613 332.455 117.567L352.609 111.731C352.749 111.686 352.832 111.549 352.777 111.435C352.721 111.321 352.582 111.275 352.414 111.321ZM352.414 113.692L332.26 119.505C332.121 119.551 332.037 119.687 332.093 119.801C332.148 119.915 332.316 119.984 332.455 119.938L352.609 114.125C352.749 114.079 352.832 113.943 352.777 113.829C352.721 113.715 352.582 113.646 352.414 113.692ZM352.414 108.927L332.26 114.763C332.121 114.809 332.037 114.946 332.093 115.06C332.148 115.174 332.316 115.242 332.455 115.196L352.609 109.361C352.749 109.315 352.832 109.178 352.777 109.064C352.721 108.95 352.582 108.882 352.414 108.927ZM352.414 116.063L332.26 121.876C332.121 121.921 332.037 122.058 332.093 122.172C332.148 122.286 332.316 122.354 332.455 122.309L352.609 116.496C352.749 116.45 352.832 116.313 352.777 116.199C352.721 116.085 352.582 116.017 352.414 116.063ZM352.414 118.434L332.26 124.247C332.121 124.292 332.037 124.429 332.093 124.543C332.148 124.657 332.316 124.725 332.455 124.68L352.609 118.867C352.749 118.821 352.832 118.684 352.777 118.57C352.721 118.456 352.582 118.388 352.414 118.434ZM352.414 123.198L332.26 129.034C332.121 129.079 332.037 129.216 332.093 129.33C332.148 129.444 332.316 129.513 332.455 129.467L352.609 123.631C352.749 123.585 352.832 123.449 352.777 123.335C352.721 123.221 352.582 123.152 352.414 123.198ZM352.414 120.804L332.26 126.64C332.121 126.686 332.037 126.823 332.093 126.937C332.148 127.051 332.316 127.119 332.455 127.073L352.609 121.237C352.749 121.192 352.832 121.055 352.777 120.941C352.721 120.827 352.582 120.782 352.414 120.804Z" fill="#AAD1FF" fill-opacity="0.7"/>
<path d="M329.5 145.173C329.221 145.173 328.97 145.128 328.719 145.059L301.902 137.309V103L329.5 110.979V145.173Z" fill="#AAD1FF"/>
<path d="M306.224 130.447C306.168 130.561 306.251 130.698 306.391 130.743L326.545 136.556C326.685 136.602 326.852 136.533 326.908 136.419C326.963 136.306 326.88 136.169 326.74 136.123L306.586 130.31C306.419 130.287 306.279 130.333 306.224 130.447ZM306.224 128.076C306.168 128.19 306.251 128.327 306.391 128.372L326.545 134.185C326.685 134.231 326.852 134.163 326.908 134.049C326.963 133.935 326.88 133.798 326.74 133.752L306.586 127.939C306.419 127.894 306.279 127.962 306.224 128.076ZM306.224 125.705C306.168 125.819 306.251 125.956 306.391 126.002L326.545 131.815C326.685 131.86 326.852 131.792 326.908 131.678C326.963 131.564 326.88 131.427 326.74 131.381L306.586 125.568C306.419 125.523 306.279 125.591 306.224 125.705ZM306.224 132.84C306.168 132.954 306.251 133.091 306.391 133.137L326.545 138.973C326.685 139.018 326.852 138.95 326.908 138.836C326.963 138.722 326.88 138.585 326.74 138.54L306.586 132.704C306.419 132.658 306.279 132.704 306.224 132.84ZM326.908 112.666C326.963 112.552 326.88 112.415 326.74 112.369L306.586 106.556C306.447 106.511 306.279 106.579 306.224 106.693C306.168 106.807 306.251 106.944 306.391 106.989L326.545 112.802C326.685 112.848 326.852 112.802 326.908 112.666ZM306.224 135.211C306.168 135.325 306.251 135.462 306.391 135.508L326.545 141.344C326.685 141.389 326.852 141.321 326.908 141.207C326.963 141.093 326.88 140.956 326.74 140.91L306.586 135.075C306.419 135.029 306.279 135.097 306.224 135.211ZM306.224 111.457C306.168 111.571 306.251 111.708 306.391 111.754L326.545 117.59C326.685 117.635 326.852 117.567 326.908 117.453C326.963 117.339 326.88 117.202 326.74 117.157L306.586 111.321C306.419 111.275 306.279 111.321 306.224 111.457ZM306.224 113.828C306.168 113.942 306.251 114.079 306.391 114.125L326.545 119.938C326.685 119.983 326.852 119.915 326.908 119.801C326.963 119.687 326.88 119.55 326.74 119.505L306.586 113.692C306.419 113.646 306.279 113.714 306.224 113.828ZM306.224 109.064C306.168 109.178 306.251 109.315 306.391 109.36L326.545 115.196C326.685 115.242 326.852 115.173 326.908 115.059C326.963 114.945 326.88 114.809 326.74 114.763L306.586 108.927C306.419 108.882 306.279 108.95 306.224 109.064ZM306.224 116.199C306.168 116.313 306.251 116.45 306.391 116.495L326.545 122.309C326.685 122.354 326.852 122.286 326.908 122.172C326.963 122.058 326.88 121.921 326.74 121.875L306.586 116.062C306.419 116.017 306.279 116.085 306.224 116.199ZM306.224 118.57C306.168 118.684 306.251 118.821 306.391 118.866L326.545 124.679C326.685 124.725 326.852 124.657 326.908 124.543C326.963 124.429 326.88 124.292 326.74 124.246L306.586 118.433C306.419 118.388 306.279 118.456 306.224 118.57ZM306.224 123.334C306.168 123.448 306.251 123.585 306.391 123.631L326.545 129.467C326.685 129.512 326.852 129.444 326.908 129.33C326.963 129.216 326.88 129.079 326.74 129.033L306.586 123.198C306.419 123.152 306.279 123.22 306.224 123.334ZM306.224 120.964C306.168 121.078 306.251 121.214 306.391 121.26L326.545 127.096C326.685 127.141 326.852 127.073 326.908 126.959C326.963 126.845 326.88 126.708 326.74 126.663L306.586 120.804C306.419 120.781 306.279 120.827 306.224 120.964Z" fill="white" fill-opacity="0.6"/>
<path d="M330.029 110.523L330.392 146.473L331.785 144.672L333.235 145.652L332.733 109.748L330.029 110.523Z" fill="#497CCB"/>
<path d="M172.899 94.5912H164.312C163.831 94.5912 163.487 94.2472 163.487 93.7655V51.7944C163.487 51.3128 163.831 50.9688 164.312 50.9688H172.899C173.38 50.9688 173.724 51.3128 173.724 51.7944V93.7655C173.724 94.2472 173.38 94.5912 172.899 94.5912Z" fill="#AAD1FF"/>
<path d="M171.388 74.294H165.892C165.48 74.294 165.067 73.95 165.067 73.4684V72.0923C165.067 71.6794 165.411 71.2666 165.892 71.2666H171.388C171.8 71.2666 172.212 71.6106 172.212 72.0923V73.4684C172.212 73.95 171.8 74.294 171.388 74.294Z" fill="white" fill-opacity="0.5"/>
<path d="M173.792 54.5469H163.556V56.1982H173.792V54.5469Z" fill="white" fill-opacity="0.5"/>
<path d="M173.792 58.0557H163.556V59.707H173.792V58.0557Z" fill="white" fill-opacity="0.5"/>
<path d="M173.792 83.9951H163.556V85.6464H173.792V83.9951Z" fill="white" fill-opacity="0.5"/>
<path d="M173.792 87.5732H163.556V89.2246H173.792V87.5732Z" fill="white" fill-opacity="0.5"/>
<path d="M153.044 94.5912H143.495C143.289 94.5912 143.151 94.4536 143.151 94.2472V51.3128C143.151 51.1064 143.289 50.9688 143.495 50.9688H153.044C153.25 50.9688 153.388 51.1064 153.388 51.3128V94.2472C153.319 94.4536 153.182 94.5912 153.044 94.5912Z" fill="#497CCB"/>
<path d="M150.984 74.294H145.488C145.075 74.294 144.663 73.95 144.663 73.4684V72.0923C144.663 71.6794 145.007 71.2666 145.488 71.2666H150.984C151.396 71.2666 151.808 71.6106 151.808 72.0923V73.4684C151.808 73.95 151.396 74.294 150.984 74.294Z" fill="white" fill-opacity="0.5"/>
<path d="M153.388 54.5469H143.151V56.1982H153.388V54.5469Z" fill="white" fill-opacity="0.5"/>
<path d="M153.388 58.0557H143.151V59.707H153.388V58.0557Z" fill="white" fill-opacity="0.5"/>
<path d="M153.388 83.9951H143.151V85.6464H153.388V83.9951Z" fill="white" fill-opacity="0.5"/>
<path d="M153.388 87.5732H143.151V89.2246H153.388V87.5732Z" fill="white" fill-opacity="0.5"/>
<path d="M162.731 94.5912H154.144C153.663 94.5912 153.319 94.2472 153.319 93.7655V51.7944C153.319 51.3128 153.663 50.9688 154.144 50.9688H162.731C163.212 50.9688 163.556 51.3128 163.556 51.7944V93.7655C163.556 94.2472 163.144 94.5912 162.731 94.5912Z" fill="#F1F7FF"/>
<path d="M161.152 74.294H155.655C155.243 74.294 154.831 73.95 154.831 73.4684V72.0923C154.831 71.6794 155.175 71.2666 155.655 71.2666H161.152C161.564 71.2666 161.976 71.6106 161.976 72.0923V73.4684C161.976 73.95 161.632 74.294 161.152 74.294Z" fill="black" fill-opacity="0.2"/>
<path d="M163.556 54.5469H153.319V56.1982H163.556V54.5469Z" fill="black" fill-opacity="0.2"/>
<path d="M163.556 58.0557H153.319V59.707H163.556V58.0557Z" fill="black" fill-opacity="0.2"/>
<path d="M163.556 83.9951H153.319V85.6464H163.556V83.9951Z" fill="black" fill-opacity="0.2"/>
<path d="M163.556 87.5732H153.319V89.2246H163.556V87.5732Z" fill="black" fill-opacity="0.2"/>
<path d="M190.28 93.0774L180.799 94.5911C180.662 94.5911 180.456 94.5223 180.456 94.3159L173.654 51.932C173.654 51.7943 173.723 51.5879 173.929 51.5879L183.41 50.0742C183.547 50.0742 183.753 50.143 183.753 50.3494L190.555 92.7334C190.624 92.871 190.486 93.0086 190.28 93.0774Z" fill="#45465F"/>
<path d="M185.608 73.2614L179.15 74.2934C179.013 74.2934 178.875 74.2246 178.807 74.087L178.395 71.6788C178.395 71.5412 178.463 71.4036 178.601 71.3348L185.059 70.3027C185.196 70.3027 185.333 70.3715 185.402 70.5092L185.814 72.9173C185.814 73.1237 185.746 73.2614 185.608 73.2614Z" fill="white" fill-opacity="0.5"/>
<path d="M184.321 53.4538L174.215 55.0859L174.477 56.7163L184.584 55.0842L184.321 53.4538Z" fill="white" fill-opacity="0.5"/>
<path d="M184.865 56.8962L174.759 58.5283L175.021 60.1587L185.128 58.5266L184.865 56.8962Z" fill="white" fill-opacity="0.5"/>
<path d="M188.991 82.5642L178.885 84.1963L179.147 85.8266L189.254 84.1945L188.991 82.5642Z" fill="white" fill-opacity="0.5"/>
<path d="M189.536 86.0036L179.43 87.6357L179.692 89.2661L189.799 87.634L189.536 86.0036Z" fill="white" fill-opacity="0.5"/>
<g opacity="0.8">
<g opacity="0.8">
<g opacity="0.8">
<path opacity="0.8" d="M216.525 106.289H124.121L122.129 100.922H218.861L216.525 106.289Z" fill="#CED3E6"/>
</g>
</g>
</g>
<path d="M218.861 94.5225H122.129V100.921H218.861V94.5225Z" fill="#45465F"/>
<path d="M90.6859 333.07C140.77 333.07 181.372 330.668 181.372 327.704C181.372 324.74 140.77 322.337 90.6859 322.337C40.6015 322.337 0 324.74 0 327.704C0 330.668 40.6015 333.07 90.6859 333.07Z" fill="#E2E6F7"/>
<path d="M126.273 330.181C97.8997 329.217 68.6329 325.295 53.4499 273.004C48.9156 257.454 51.8697 245.688 56.8163 236.812C58.0529 234.61 59.3582 232.615 60.8009 230.757C61.3505 230.069 61.8315 229.381 62.3811 228.762C73.442 215.138 92.0601 210.253 108.48 216.308C117.686 219.68 129.571 224.634 140.151 231.17C161.38 244.174 166.326 259.036 173.265 284.494C173.883 286.696 174.433 289.104 174.914 291.719C175.189 293.095 175.326 294.54 175.464 295.984C176.975 312.222 170.723 331.763 126.273 330.181Z" fill="#65617D"/>
<path d="M105.8 318.277C98.4494 316.006 92.0602 312.635 86.2892 307.956C76.5336 300.112 68.4956 288.553 60.2514 270.664C57.0224 263.577 55.3049 256.421 55.2362 249.334C55.1675 245.137 55.7171 240.94 56.8163 236.812C58.053 234.61 59.3583 232.615 60.801 230.757C60.4575 231.582 60.114 232.408 59.7705 233.303C56.8163 241.49 54.7553 254.426 61.9002 269.907C76.3962 301.42 93.1594 320.685 132.113 319.653C154.098 319.103 164.815 310.158 169.968 302.796C172.647 298.943 174.158 295.09 174.914 291.581C175.189 292.957 175.326 294.402 175.464 295.846C174.502 298.461 173.197 301.213 171.41 303.759C166.052 311.465 154.922 320.754 132.182 321.373C131.151 321.373 130.189 321.442 129.228 321.442" fill="#585859"/>
<path d="M134.93 199.451C134.93 199.451 152.724 223.602 156.777 235.643C160.831 247.684 151.006 256.215 151.006 256.215L141.869 259.656C141.8 259.724 132.457 217.203 134.93 199.451Z" fill="#75A9E7"/>
<path d="M133.35 267.155C125.586 269.77 106.556 276.513 98.3118 273.761C97.9683 273.623 97.6248 273.485 97.35 273.348C96.4569 272.935 95.7012 272.316 95.2203 271.559C91.9913 266.605 88.7623 245.895 90.205 233.785C90.4112 232.271 90.4798 230.62 90.4798 228.9C90.5486 226.354 90.4111 223.602 90.3424 220.849C89.9302 210.529 88.2814 203.373 92.747 200.896C96.7317 198.625 101.747 196.905 104.907 196.08C106.899 195.598 110.128 194.635 112.396 194.635L122.22 196.424C122.22 196.424 130.739 197.869 132.663 199.314C134.655 200.758 135.617 207.157 139.189 213.006C142.762 218.854 143.517 224.703 140.151 231.101C137.197 236.675 137.746 234.542 137.334 243.693C136.853 254.908 148.533 262.133 133.35 267.155Z" fill="white"/>
<g opacity="0.8">
<path opacity="0.8" d="M102.984 253.807C102.916 253.807 102.916 253.739 102.847 253.67C102.709 253.463 102.778 253.188 102.984 253.119C110.541 248.51 117.824 246.927 122.564 246.377C127.717 245.757 131.083 246.239 131.221 246.308C131.427 246.308 131.633 246.583 131.564 246.789C131.564 246.996 131.289 247.202 131.083 247.133C131.083 247.133 127.717 246.652 122.633 247.202C117.961 247.753 110.816 249.335 103.396 253.876C103.259 253.945 103.122 253.945 102.984 253.807Z" fill="#CED3E6"/>
</g>
<path d="M112.877 270.94C105.869 268.738 99.5489 264.266 95.2207 260.275C94.8772 259.931 94.5337 259.656 94.2589 259.312C91.9917 257.11 90.4116 258.279 89.7246 256.972C87.1139 252.156 88.6254 233.372 89.7246 226.423C90.8238 219.542 86.0834 206.882 88.6254 202.341C91.1673 197.8 100.03 196.217 100.03 196.217C100.03 196.217 98.7932 194.772 101.129 193.121C103.534 191.47 109.785 192.158 109.785 192.158C110.129 222.088 114.388 249.816 112.877 270.94Z" fill="#AAD1FF"/>
<path d="M105.458 199.52H105.389C102.091 198.626 100.099 196.699 99.9615 196.63C99.824 196.493 99.824 196.217 99.9615 196.08C100.099 195.942 100.374 195.942 100.511 196.08C100.511 196.08 102.503 198.006 105.595 198.763C105.801 198.832 105.938 199.038 105.87 199.245C105.801 199.451 105.664 199.52 105.458 199.52Z" fill="#75A9E7"/>
<path d="M143.174 257.867C143.174 257.867 140.701 266.261 131.358 270.32C130.19 247.477 127.579 221.469 124.213 193.74C124.213 193.74 127.785 193.121 129.228 195.116C129.846 196.011 129.984 197.456 129.984 197.456C129.984 197.456 131.77 197.8 133.762 198.763C135.755 199.657 135.549 200.965 136.03 204.199C136.51 207.432 141.457 212.455 143.106 219.198C144.755 225.941 140.426 230.276 139.052 235.987C137.816 241.629 143.174 257.867 143.174 257.867Z" fill="#AAD1FF"/>
<path d="M126.686 200.415C126.48 200.415 126.343 200.277 126.274 200.071C126.206 199.864 126.412 199.658 126.618 199.589C126.618 199.589 129.16 199.107 129.709 197.319C129.778 197.112 129.984 196.974 130.19 197.043C130.396 197.112 130.534 197.319 130.465 197.525C129.709 199.864 126.893 200.346 126.686 200.415Z" fill="#75A9E7"/>
<path d="M111.227 277.82C112.395 278.646 114.319 279.54 117.067 280.435C133.006 285.527 147.639 277.339 147.639 277.339C148.532 272.935 147.983 267.981 146.54 266.192C147.021 265.573 146.677 264.747 146.677 264.747L161.311 249.473C152.998 256.422 142.624 258.693 134.655 263.509C132.319 264.885 130.258 266.123 128.746 267.018C126.41 268.325 123.456 268.463 120.571 268.05C114.869 267.293 109.441 264.472 109.441 264.472C109.441 264.472 91.1666 256.147 87.7315 256.491C85.0522 256.697 99.4108 271.697 111.227 277.82Z" fill="#497CCB"/>
<path d="M138.846 289.999C138.846 289.999 134.449 288.76 133.075 287.315L129.983 294.54L140.426 297.774C140.495 297.774 140.632 291.444 138.846 289.999Z" fill="#FDC6B4"/>
<path d="M159.044 307.75L148.052 283.256C147.64 283.256 147.159 283.325 146.54 283.531C144.411 284.288 141.388 286.49 139.464 287.728C139.258 287.866 139.052 288.003 138.846 288.141C138.502 288.347 138.227 288.485 138.021 288.623C136.304 289.379 137.197 290.274 137.197 290.274C140.357 291.856 138.434 296.535 140.357 297.636C140.357 297.636 141.182 298.118 143.792 299.287C146.403 300.457 149.082 303.209 151.487 305.549C154.647 308.507 156.639 308.851 157.739 308.576C158.701 308.301 159.044 307.75 159.044 307.75Z" fill="#D0D2D5"/>
<path d="M159.044 307.75L148.051 283.256C147.639 283.256 147.158 283.325 146.54 283.531L157.807 308.576C158.7 308.301 159.044 307.75 159.044 307.75Z" fill="#A6A4B0"/>
<path d="M87.7318 256.491C87.7318 256.491 76.19 250.229 69.4572 255.046C57.2284 263.853 77.9762 280.848 101.747 289.173C125.518 297.498 133.212 296.329 133.212 296.329C133.212 296.329 138.365 294.884 136.51 286.49C136.51 286.49 122.838 281.26 115.693 275.825C108.617 270.389 103.739 263.715 87.7318 256.491Z" fill="#497CCB"/>
<path d="M135.617 288.967C130.601 287.797 120.502 283.118 108.411 276.513C99.4109 271.559 89.037 265.229 87.5256 263.027C86.7012 261.858 86.4951 260.894 86.9073 260.137C87.5256 259.037 89.3118 258.968 90.1362 258.968C90.3423 258.968 90.4797 259.174 90.4797 259.381C90.4797 259.587 90.3423 259.725 90.1362 259.725C89.3118 259.725 87.9378 259.862 87.5256 260.55C87.1821 261.101 87.663 261.995 88.0752 262.683C89.3118 264.472 97.9682 270.045 108.754 275.894C118.029 280.985 129.914 286.903 135.754 288.279L135.617 288.967Z" fill="#AAD1FF" fill-opacity="0.3"/>
<path d="M105.87 289.862C105.87 289.862 109.717 289.105 110.816 287.798L113.908 293.922L104.977 297.362C105.045 297.362 104.427 291.238 105.87 289.862Z" fill="#FDC6B4"/>
<path d="M85.2588 310.159L95.2892 283.256C95.7014 283.187 96.251 283.256 96.938 283.463C99.2739 284.151 102.64 286.215 104.77 287.453C105.045 287.591 105.251 287.729 105.457 287.866C105.801 288.073 106.144 288.21 106.35 288.279C108.205 288.967 107.449 289.518 107.449 289.518C103.739 291.238 106.488 296.811 104.495 298.118C104.495 298.118 103.671 298.669 100.923 300.114C98.1747 301.558 95.564 304.723 93.1595 307.338C89.9992 310.709 87.9381 311.191 86.7015 310.985C85.671 310.778 85.2588 310.159 85.2588 310.159Z" fill="#D0D2D5"/>
<path d="M85.2588 310.159L95.2892 283.256C95.7014 283.187 96.251 283.256 96.9381 283.463L86.7015 310.985C85.671 310.778 85.2588 310.159 85.2588 310.159Z" fill="#A6A4B0"/>
<path d="M156.64 251.399C156.64 251.399 167.563 244.106 174.708 248.303C187.693 255.94 168.594 274.793 145.647 285.251C122.77 295.71 114.938 295.297 114.938 295.297C114.938 295.297 109.648 294.334 110.747 285.87C110.747 285.87 123.938 279.403 130.533 273.348C137.128 267.156 141.319 260.069 156.64 251.399Z" fill="#497CCB"/>
<path d="M111.846 288.21C116.724 286.558 126.411 280.985 137.747 273.279C146.266 267.499 156.021 260.275 157.326 257.935C158.013 256.697 158.151 255.665 157.67 254.977C156.983 253.945 155.197 254.013 154.372 254.082C154.166 254.082 154.029 254.289 154.029 254.495C154.029 254.701 154.235 254.839 154.441 254.77C155.265 254.702 156.639 254.701 157.12 255.39C157.533 255.94 157.12 256.834 156.708 257.523C155.678 259.38 147.502 265.71 137.334 272.591C128.609 278.508 117.205 285.526 111.571 287.453L111.846 288.21Z" fill="#AAD1FF" fill-opacity="0.3"/>
<path d="M111.021 249.816L110.128 262.407C110.128 262.407 95.2201 260.274 87.869 258.417C85.7393 257.866 83.3347 257.178 81.1363 256.008C77.0829 253.876 73.7165 250.091 73.9913 242.798C74.06 240.459 74.5409 237.706 75.434 234.61C80.7928 216.377 89.7239 201.033 89.7239 201.033C101.197 205.987 100.235 214.175 100.235 214.175C96.9376 222.913 89.7239 241.559 89.7239 241.559C93.9147 246.651 111.021 249.816 111.021 249.816Z" fill="#AAD1FF"/>
<path d="M89.7236 241.904C89.6549 241.904 89.5862 241.904 89.5175 241.835C88.2808 241.078 84.7771 240.253 84.7771 240.253C84.5709 240.184 84.4335 239.977 84.5022 239.771C84.5709 239.565 84.777 239.427 84.9832 239.496C85.1206 239.496 87.5251 240.115 89.1052 240.803C88.8991 240.253 88.4869 239.702 87.9373 239.083C87.7999 238.945 87.7999 238.67 88.006 238.532C88.1434 238.395 88.4182 238.395 88.5556 238.601C89.4487 239.633 89.9984 240.597 90.1358 241.491C90.1358 241.629 90.0671 241.766 89.9984 241.904C89.861 241.835 89.7923 241.904 89.7236 241.904Z" fill="#75A9E7"/>
<path d="M81.1363 255.94C77.0829 253.807 73.7165 250.023 73.9913 242.729C77.2203 244.45 82.7851 248.509 81.1363 255.94Z" fill="#75A9E7"/>
<path d="M101.609 247.889H101.54C94.1205 245.963 89.6549 241.972 89.4488 241.834C89.3114 241.697 89.3114 241.49 89.3801 241.353C94.6701 230.963 97.9678 222.707 99.8914 215.413C99.9601 215.207 100.166 215.069 100.372 215.138C100.578 215.207 100.716 215.413 100.647 215.62C98.7922 222.913 95.4258 231.17 90.2045 241.422C91.235 242.247 95.4258 245.481 101.746 247.132C101.952 247.201 102.09 247.408 102.021 247.614C101.952 247.752 101.815 247.889 101.609 247.889Z" fill="#75A9E7"/>
<path d="M98.6547 221.193C98.586 221.193 98.5173 221.193 98.3799 221.124C98.2425 220.986 98.1738 220.711 98.3112 220.573L101.059 217.133C101.197 216.995 101.471 216.927 101.609 217.064C101.746 217.202 101.815 217.477 101.678 217.615L98.9295 221.055C98.8608 221.124 98.7921 221.193 98.6547 221.193Z" fill="#75A9E7"/>
<path d="M111.434 189.474L124.694 191.4C133.281 190.506 136.029 187.134 137.472 179.841C138.159 176.194 137.678 172.961 136.991 170.552C136.785 167.8 136.167 165.461 134.93 163.947C129.09 156.929 124.007 157.204 124.007 157.204C121.396 156.035 112.808 155.209 107.106 162.089C106.9 162.227 103.465 165.942 102.64 173.649C101.885 181.011 106.762 190.368 111.434 189.474Z" fill="#39393B"/>
<path d="M118.854 159.131C118.854 159.131 120.228 146.884 109.373 148.466C102.297 149.498 97.8999 159.131 104.358 163.466C110.885 167.801 118.854 159.131 118.854 159.131Z" fill="#39393B"/>
<path d="M112.465 186.723C112.465 186.723 104.015 181.975 105.664 172.136C107.312 162.297 113.839 156.311 123.732 159.201C123.801 159.201 122.839 187.686 112.465 186.723Z" fill="#39393B"/>
<path d="M136.029 168.627C136.029 168.627 136.922 177.09 135.342 178.328C133.831 179.567 132.319 176.196 132.319 176.196C132.319 176.196 134.38 168.696 136.029 168.627Z" fill="#39393B"/>
<path d="M132.113 179.084C132.113 179.084 134.655 176.883 135.48 179.566C136.304 182.318 134.587 187.272 131.495 185.965L132.113 179.084Z" fill="#D46A43"/>
<path d="M135.205 185.345C134.862 185.689 134.449 185.965 134.037 186.171C132.457 186.997 130.396 187.134 127.923 185.827C127.923 185.827 124.763 181.699 129.434 174.405C129.434 174.405 133.762 173.236 136.236 175.85C136.51 176.125 136.785 176.47 136.991 176.882C137.129 177.089 137.266 177.364 137.335 177.639C138.228 179.841 137.404 183.35 135.205 185.345Z" fill="#497CCB"/>
<path d="M124.762 191.263L123.732 198.281C123.732 198.281 119.472 203.786 109.511 194.841C110.61 192.02 112.396 188.304 111.915 185.483C111.915 185.483 112.671 186.171 113.908 186.928C114.182 187.066 114.457 187.272 114.732 187.41C117.274 189.061 121.259 191.057 124.762 191.263Z" fill="#FDC6B4"/>
<path d="M124.762 191.263L124.281 194.566C121.396 193.465 116.38 191.057 113.907 186.929C114.182 187.066 114.457 187.273 114.732 187.41C117.274 189.062 121.258 191.057 124.762 191.263Z" fill="#F2B6A3"/>
<path d="M134.518 178.502C134.381 179.259 134.818 181.002 134.518 182.502C133.82 186.002 132 187.502 130 191.002C125.5 196.502 112.259 185.896 111.916 185.621C111.847 185.071 111.847 184.52 111.847 183.97C111.71 179.291 112.259 175.094 113.29 171.172C113.702 166.906 116.794 163.397 120.984 162.502C125.312 161.608 128.748 163.947 130.809 164.979C133.969 166.493 135.962 169.309 135 175.502C134.931 176.19 134.656 177.883 134.518 178.502Z" fill="#FDC6B4"/>
<path d="M128.61 187.377C124.9 188.272 122.633 185.107 122.564 185.038C122.427 184.9 122.495 184.694 122.633 184.556C122.77 184.419 122.976 184.488 123.114 184.625C123.182 184.763 125.656 188.066 129.503 186.345C129.709 186.277 129.846 186.345 129.984 186.552C130.053 186.758 129.984 186.896 129.778 187.033C129.434 187.171 129.022 187.309 128.61 187.377Z" fill="#39393B"/>
<path d="M127.785 181.975C127.717 181.975 127.648 181.906 127.648 181.837C127.579 181.7 127.648 181.562 127.785 181.493L129.434 180.943L128.472 179.979C128.404 179.911 128.404 179.842 128.404 179.773L128.679 177.021C128.679 176.883 128.816 176.814 128.953 176.814C129.091 176.814 129.159 176.952 129.159 177.09L128.885 179.704L130.053 180.874C130.121 180.943 130.121 181.012 130.121 181.08C130.121 181.149 130.053 181.218 129.984 181.287L127.923 181.975C127.923 182.044 127.854 181.975 127.785 181.975Z" fill="#39393B" fill-opacity="0.4"/>
<path d="M114.938 182.8C114.87 182.869 113.496 185.139 111.915 185.621C111.847 185.07 111.847 184.52 111.847 183.969C111.915 183.901 113.427 183.901 114.938 182.8Z" fill="#39393B"/>
<path d="M114.32 177.158C114.32 177.158 111.847 172.479 109.03 175.438C106.763 177.846 109.236 185.621 113.427 183.557L114.32 177.158Z" fill="#EA9B7A"/>
<path d="M113.152 182.319C113.014 182.319 112.877 182.181 112.877 181.975C113.014 178.741 110.541 177.227 110.404 177.158C110.266 177.09 110.198 176.883 110.266 176.746C110.335 176.608 110.541 176.539 110.678 176.608C110.816 176.677 113.633 178.397 113.495 181.975C113.495 182.181 113.358 182.319 113.152 182.319Z" fill="#39393B"/>
<path d="M110.404 179.91C110.336 179.91 110.198 179.841 110.198 179.772C110.13 179.635 110.13 179.428 110.336 179.36C110.473 179.291 111.778 178.534 112.672 178.947C112.809 179.016 112.946 179.222 112.878 179.36C112.809 179.497 112.603 179.635 112.465 179.566C111.916 179.36 110.954 179.772 110.679 179.979C110.611 179.91 110.473 179.91 110.404 179.91Z" fill="#39393B"/>
<path d="M122.083 181.424C119.61 180.46 118.373 177.708 119.335 175.3C120.297 172.823 123.045 171.584 125.45 172.548C127.923 173.511 129.16 176.263 128.198 178.671C127.305 181.148 124.557 182.387 122.083 181.424ZM125.244 173.167C123.183 172.341 120.778 173.442 120.022 175.506C119.198 177.57 120.297 179.979 122.358 180.735C124.419 181.561 126.824 180.46 127.579 178.396C128.335 176.332 127.305 173.993 125.244 173.167Z" fill="white"/>
<path d="M119.473 175.919C119.404 175.919 119.404 175.919 119.335 175.919C116.793 174.75 114.32 175.644 114.32 175.644C114.114 175.713 113.908 175.644 113.839 175.438C113.771 175.231 113.839 175.025 114.045 174.956C114.183 174.887 116.725 173.924 119.61 175.231C119.816 175.3 119.885 175.506 119.748 175.713C119.748 175.851 119.61 175.919 119.473 175.919Z" fill="white"/>
<path d="M132.595 182.593C130.122 181.63 128.885 178.878 129.847 176.47C130.809 173.993 133.557 172.754 135.961 173.718C138.435 174.681 139.671 177.433 138.709 179.841C137.816 182.318 135.068 183.557 132.595 182.593ZM135.755 174.406C133.694 173.58 131.29 174.681 130.534 176.745C129.71 178.809 130.809 181.217 132.87 181.974C134.931 182.8 137.335 181.699 138.091 179.635C138.847 177.502 137.816 175.162 135.755 174.406Z" fill="white"/>
<path d="M127.992 176.676C127.923 176.676 127.923 176.608 127.855 176.539C127.786 176.401 127.786 176.195 127.992 176.057C128.061 176.057 129.229 175.3 130.397 176.263C130.534 176.401 130.603 176.608 130.465 176.745C130.328 176.883 130.122 176.952 129.984 176.814C129.16 176.195 128.404 176.676 128.404 176.676C128.198 176.745 128.129 176.745 127.992 176.676Z" fill="white"/>
<path d="M134.5 159.002C137.385 160.31 138.469 167.044 139.5 170.003C140.118 171.86 137.884 171.723 135.274 171.448C128.06 170.554 124.213 163.123 124.213 163.123C124.213 163.123 122.839 170.003 117.136 169.178C111.503 168.352 111.64 164.086 114.869 161.678C117.48 159.614 116.844 151.003 134.5 159.002Z" fill="#39393B"/>
<path d="M117.342 168.352C117.342 168.352 114.113 171.792 115.281 175.507C116.449 179.223 116.518 182.25 115.281 184.246C115.281 184.246 114.938 180.324 113.564 177.365C112.396 174.957 111.296 173.099 112.121 170.278C112.739 168.283 114.113 166.425 117.342 168.352Z" fill="#39393B"/>
<path d="M112.121 185.209C109.648 185.828 107.724 185.484 106.282 184.589C106.075 184.452 105.869 184.314 105.663 184.108C102.64 181.631 102.434 176.402 104.289 173.856C104.908 172.961 105.663 172.342 106.488 171.929C106.694 171.792 106.969 171.723 107.243 171.654C110.335 170.622 113.701 172.48 113.701 172.48C117.068 182.181 112.121 185.209 112.121 185.209Z" fill="#497CCB"/>
<path d="M106.281 184.59C106.075 184.452 105.869 184.314 105.663 184.108C107.999 178.879 107.175 174.338 106.488 171.93C106.694 171.792 106.968 171.723 107.243 171.654C107.93 174.131 108.755 179.016 106.281 184.59Z" fill="white" fill-opacity="0.3"/>
<path d="M131 157.502L127.5 156.762C127.021 156.631 126.521 156.526 125.999 156.448C122.495 155.898 119.472 156.586 116.999 158.512C116.243 159.131 115.556 159.82 114.938 160.508C114.113 161.54 113.358 162.709 112.808 163.879C110.816 167.87 110.335 171.998 110.335 172.067L109.373 171.929C109.442 171.516 110.472 162.297 116.449 157.687C119.129 155.622 122.426 154.866 126.205 155.416C128.373 155.757 131 157.502 131 157.502Z" fill="white"/>
<path d="M99.617 271.352L96.3194 265.022C95.4949 263.44 96.6629 261.582 98.4491 261.582L150.662 262.132L149.151 270.251L99.617 271.352Z" fill="#3F3D56"/>
<path d="M148.189 269.564H101.472C100.373 269.564 99.5485 268.669 99.6859 267.5L100.098 235.849C100.235 234.748 101.266 233.785 102.365 233.785H155.952C157.052 233.785 157.876 234.68 157.739 235.849L150.456 267.5C150.319 268.601 149.288 269.564 148.189 269.564Z" fill="#3F3D56"/>
<path d="M100.716 270.802C100.441 270.802 100.304 270.596 100.304 270.39L101.403 236.675C101.403 236.469 101.609 236.331 101.815 236.331C102.021 236.331 102.159 236.537 102.159 236.744L101.059 270.458C101.059 270.665 100.922 270.802 100.716 270.802Z" fill="white" fill-opacity="0.2"/>
<path d="M123.456 253.532C123.25 255.872 124.968 257.867 127.304 258.004C129.571 258.142 131.563 256.353 131.769 254.083C131.975 251.743 130.258 249.748 127.922 249.61C125.655 249.473 123.662 251.193 123.456 253.532Z" fill="white" fill-opacity="0.2"/>
<path d="M148.395 272.041H100.991C99.9608 272.041 99.1364 271.146 99.2738 270.114L99.7547 266.812H150.594L150.113 270.596C149.975 271.421 149.22 272.041 148.395 272.041Z" fill="#3F3D56"/>
<path d="M120.018 176C120.24 176.111 120.428 176.213 120.616 176.307C121.452 176.726 122.323 177.041 123.262 177.161C123.527 177.195 123.783 177.204 124.047 177.161C124.227 177.127 124.414 177.135 124.602 177.118C124.901 177.084 125.114 177.212 125.277 177.451C125.353 177.562 125.49 177.682 125.413 177.818C125.336 177.963 125.191 177.844 125.08 177.818C124.935 177.784 124.807 177.835 124.671 177.869C124.449 177.929 124.218 177.989 123.996 178.049C122.861 178.339 121.888 177.972 120.983 177.315C120.633 177.05 120.308 176.76 120.086 176.376C120.035 176.282 119.967 176.188 120.018 176Z" fill="#39393B"/>
<path d="M120.138 172.554C120.317 172.213 120.59 171.982 120.897 171.777C121.444 171.427 122.05 171.239 122.673 171.12C123.484 170.966 124.303 170.966 125.123 171.086C125.336 171.12 125.516 171.171 125.584 171.402C125.652 171.624 125.575 171.777 125.362 171.828C125.225 171.863 125.089 171.863 124.944 171.854C124.5 171.828 124.047 171.794 123.603 171.752C123.339 171.726 123.083 171.735 122.818 171.786C122.024 171.939 121.256 172.153 120.513 172.477C120.402 172.528 120.308 172.622 120.138 172.554Z" fill="#4E4E4E"/>
<path d="M134.769 177C134.845 177.427 134.751 177.726 134.504 177.999C134.171 178.366 133.761 178.605 133.283 178.724C132.967 178.801 132.669 178.733 132.378 178.613C131.977 178.451 131.619 178.195 131.175 178.135C130.987 178.11 130.961 177.99 131.047 177.828C131.234 177.487 131.533 177.376 131.96 177.487C132.242 177.563 132.515 177.683 132.797 177.768C133.369 177.948 133.83 177.751 134.256 177.401C134.41 177.273 134.53 177.111 134.769 177Z" fill="#39393B"/>
<path d="M134.999 173.083C134.829 173.168 134.718 173.109 134.607 173.057C133.89 172.776 133.156 172.639 132.387 172.682C132.276 172.69 132.174 172.682 132.063 172.665C131.909 172.648 131.798 172.579 131.79 172.409C131.773 172.255 131.841 172.135 131.977 172.067C132.046 172.033 132.123 172.016 132.199 172.007C133.224 171.914 134.12 172.204 134.88 172.895C134.923 172.946 134.948 173.006 134.999 173.083Z" fill="#4F4F4F"/>
<path d="M33.1142 290.411C33.1142 290.411 27.8242 282.155 15.0458 274.586C6.04587 269.288 0.755859 254.22 0.755859 254.22C0.755859 254.22 18.0686 254.977 25.5571 265.504C33.1142 276.1 33.1142 290.411 33.1142 290.411Z" fill="#497CCB"/>
<path d="M30.8469 290.204C30.8469 290.204 29.3355 287.177 22.6028 287.934C15.8013 288.691 12.0227 292.475 0 285.663C0 285.663 8.99989 278.095 18.8242 279.608C28.5798 281.191 29.3355 284.906 30.8469 290.204Z" fill="#497CCB"/>
<path d="M33.8014 289.448C33.8014 289.448 33.1831 286.145 39.0914 282.705C44.9997 279.265 50.221 280.022 55.8545 267.362C55.8545 267.362 44.1066 266.742 37.1677 273.76C30.2289 280.847 31.8777 284.356 33.8014 289.448Z" fill="#497CCB"/>
<path d="M40.7404 293.576H24.2521C23.2902 293.576 22.4658 292.75 22.4658 291.787V291.03C22.4658 290.067 23.2902 289.241 24.2521 289.241H40.7404C41.7022 289.241 42.5266 290.067 42.5266 291.03V291.787C42.5266 292.75 41.7022 293.576 40.7404 293.576Z" fill="#B0C6E1"/>
<path d="M32.5648 330.455C19.0993 330.455 10.5804 328.322 11.9544 318.827C12.8475 312.772 17.5192 306.924 20.8169 303.415C21.2978 302.933 21.71 302.452 22.1222 302.108C23.3588 300.869 24.1833 300.181 24.1833 300.181L24.252 299.975L24.4581 298.667L24.7329 297.154L25.3512 293.645L25.5573 292.406L32.5648 292.131L39.9159 292.406L40.0533 293.645L40.3281 295.571L40.7403 298.667L40.9464 299.975V300.181C40.9464 300.181 41.7708 300.869 43.0074 302.108C43.4197 302.52 43.8319 302.933 44.3128 303.415C47.6104 306.924 52.2821 312.841 53.1753 318.827C54.5493 328.322 46.0303 330.455 32.5648 330.455Z" fill="#B0C6E1"/>
<path d="M40.9458 299.906H24.1826L24.4574 298.599H40.7397L40.9458 299.906Z" fill="#497CCB"/>
<path d="M44.3123 303.416H20.8164C21.2973 302.934 21.7095 302.452 22.1217 302.108H43.0757C43.4192 302.452 43.8314 302.934 44.3123 303.416Z" fill="#497CCB"/>
<path d="M40.328 295.503L24.6641 297.085L25.2824 293.576H40.0532L40.328 295.503Z" fill="#497CCB"/>
<path fill-rule="evenodd" clip-rule="evenodd" d="M502.545 306.581H581.277C584.505 306.581 587.46 307.888 589.589 310.021C591.719 312.154 593.024 315.113 593.024 318.347C593.024 321.581 591.719 324.539 589.589 326.672C587.46 328.805 584.505 330.112 581.277 330.112H502.545C499.316 330.112 496.362 328.805 494.232 326.672C492.102 324.539 490.797 321.581 490.797 318.347C490.797 315.113 492.102 312.154 494.232 310.021C496.362 307.957 499.316 306.581 502.545 306.581Z" fill="#497CCB"/>
<path fill-rule="evenodd" clip-rule="evenodd" d="M678.626 307.957H577.978C572.276 307.957 567.604 312.636 567.604 318.347C567.604 324.057 572.276 328.736 577.978 328.736H678.626V307.957Z" fill="#E7E2E3"/>
<path fill-rule="evenodd" clip-rule="evenodd" d="M678.626 306.581C679.382 306.581 680 307.2 680 307.957C680 308.714 679.382 309.333 678.626 309.333H577.978C575.505 309.333 573.238 310.365 571.589 312.017C569.94 313.668 568.91 315.939 568.91 318.416C568.91 320.893 569.94 323.163 571.589 324.814C573.238 326.466 575.505 327.498 577.978 327.498H678.626C679.382 327.498 680 328.117 680 328.874C680 329.631 679.382 330.25 678.626 330.25H577.978C574.749 330.25 571.795 328.943 569.666 326.81C567.536 324.677 566.23 321.718 566.23 318.484C566.23 315.25 567.536 312.292 569.666 310.159C571.795 308.026 574.749 306.719 577.978 306.719H678.626V306.581Z" fill="#4270B7"/>
<path fill-rule="evenodd" clip-rule="evenodd" d="M506.186 318.415C506.186 315.181 507.491 312.223 509.621 310.09C511.751 307.957 514.705 306.649 517.934 306.649H507.697C504.468 306.649 501.514 307.957 499.384 310.09C497.255 312.223 495.949 315.181 495.949 318.415C495.949 321.649 497.255 324.608 499.384 326.74C501.514 328.873 504.468 330.181 507.697 330.181H517.934C514.705 330.181 511.751 328.873 509.621 326.74C507.491 324.608 506.186 321.649 506.186 318.415Z" fill="#4270B7"/>
<path fill-rule="evenodd" clip-rule="evenodd" d="M521.026 318.415C521.026 315.181 522.331 312.223 524.461 310.09C526.59 307.957 529.545 306.649 532.773 306.649H522.537C519.308 306.649 516.354 307.957 514.224 310.09C512.094 312.223 510.789 315.181 510.789 318.415C510.789 321.649 512.094 324.608 514.224 326.74C516.354 328.873 519.308 330.181 522.537 330.181H532.773C529.545 330.181 526.59 328.873 524.461 326.74C522.331 324.608 521.026 321.649 521.026 318.415Z" fill="#4270B7"/>
<path fill-rule="evenodd" clip-rule="evenodd" d="M603.741 303.072C603.741 303.072 595.635 308.577 594.054 308.577C592.474 308.577 586.154 308.577 581.963 308.577C577.772 308.577 568.91 309.471 566.299 306.375C562.795 302.178 562.589 295.641 570.215 294.54C576.742 293.577 592.543 295.228 592.887 296.536C593.161 297.774 603.741 303.072 603.741 303.072Z" fill="#65617D"/>
<path d="M588.49 297.567L585.948 303.485" stroke="white" stroke-width="0.7087" stroke-miterlimit="2.6131" stroke-linecap="round" stroke-linejoin="round"/>
<path d="M585.123 297.567L582.513 303.485" stroke="white" stroke-width="0.7087" stroke-miterlimit="2.6131" stroke-linecap="round" stroke-linejoin="round"/>
<path d="M581.688 297.567L579.146 303.485" stroke="white" stroke-width="0.7087" stroke-miterlimit="2.6131" stroke-linecap="round" stroke-linejoin="round"/>
<path d="M578.322 297.567L575.78 303.485" stroke="white" stroke-width="0.7087" stroke-miterlimit="2.6131" stroke-linecap="round" stroke-linejoin="round"/>
<path d="M588.49 303.485L585.948 297.567" stroke="white" stroke-width="0.7087" stroke-miterlimit="2.6131" stroke-linecap="round" stroke-linejoin="round"/>
<path d="M585.123 303.485L582.513 297.567" stroke="white" stroke-width="0.7087" stroke-miterlimit="2.6131" stroke-linecap="round" stroke-linejoin="round"/>
<path d="M581.688 303.485L579.146 297.567" stroke="white" stroke-width="0.7087" stroke-miterlimit="2.6131" stroke-linecap="round" stroke-linejoin="round"/>
<path d="M578.322 303.485L575.78 297.567" stroke="white" stroke-width="0.7087" stroke-miterlimit="2.6131" stroke-linecap="round" stroke-linejoin="round"/>
<path fill-rule="evenodd" clip-rule="evenodd" d="M613.153 202.341C604.978 203.648 607.314 203.579 599.07 202.341L598.108 202.822L578 211L582.5 227C582.569 228.376 581.431 234.262 581.5 235.5L585.535 260C585.535 260 585.329 260.275 585.535 261.169C585.742 262.064 587.596 264.059 587.596 264.059C587.528 264.609 587.459 265.16 587.39 265.779C590.619 267.155 596.665 268.875 606.146 268.807C615.627 268.875 621.672 267.155 624.901 265.779C624.833 265.16 624.764 264.609 624.695 264.059C624.695 264.059 626.481 261.995 626.756 261.169C626.962 260.275 626.756 260 626.756 260L628.5 247.5C628.569 246.262 630.931 231.376 631 230L633 210L614.184 202.822L613.153 202.341Z" fill="#497CCB"/>
<path fill-rule="evenodd" clip-rule="evenodd" d="M605.871 203.304L606.146 203.373L606.49 203.304C607.864 203.235 609.375 202.96 613.085 202.341L614.047 202.822L615.97 203.717L615.352 204.405C609.1 211.148 603.055 211.148 596.803 204.405L596.185 203.717L598.039 202.822L599.001 202.341C602.917 202.96 604.429 203.235 605.871 203.304Z" fill="white"/>
<path fill-rule="evenodd" clip-rule="evenodd" d="M611.779 186.997L611.642 190.919C611.642 190.919 611.642 198.969 611.642 200.139C611.642 200.758 612.191 201.584 613.153 202.341C608.138 207.776 604.085 207.776 599.069 202.341C600.031 201.584 600.581 200.758 600.581 200.139C600.581 198.9 600.581 190.919 600.581 190.919L600.443 186.997C600.443 186.997 603.26 187.479 606.146 188.236C608.962 187.548 611.779 186.997 611.779 186.997Z" fill="#F2B6A3"/>
<path fill-rule="evenodd" clip-rule="evenodd" d="M660.764 280.917C661.519 279.885 666.328 271.353 666.328 271.353C666.328 271.353 657.122 271.353 653.413 271.353C649.771 271.353 638.504 273.83 632.733 273.899C626.962 273.968 580.726 271.697 580.726 271.697C580.726 271.697 559.36 267.569 556.406 267.225C553.452 266.881 558.811 281.743 559.91 282.981C560.94 284.151 608.482 299.219 612.466 297.843C616.52 296.536 660.764 280.917 660.764 280.917Z" fill="#3F3D56"/>
<path fill-rule="evenodd" clip-rule="evenodd" d="M607.314 292.407C607.314 292.407 653.138 274.243 658.84 272.591C664.543 270.94 668.733 270.596 671.481 273.417C674.229 276.238 675.535 282.293 671.481 286.49C667.428 290.687 639.398 298.256 627.856 299.907C616.314 301.558 611.78 302.522 610.062 302.728C608.345 302.934 607.314 302.659 606.833 301.146C606.353 299.632 605.597 295.16 605.666 294.127C605.734 293.164 607.314 292.407 607.314 292.407Z" fill="#3F3D56"/>
<path fill-rule="evenodd" clip-rule="evenodd" d="M621.192 306.099C621.192 306.099 620.848 308.507 622.497 308.507C624.077 308.507 630.398 308.507 634.589 308.507C638.779 308.507 647.642 309.402 650.253 306.305C653.756 302.108 653.962 295.572 646.337 294.471C639.81 293.508 624.009 295.159 623.665 296.466C623.39 297.774 621.192 306.099 621.192 306.099Z" fill="#65617D"/>
<path fill-rule="evenodd" clip-rule="evenodd" d="M617.688 295.021C617.688 295.021 620.78 296.329 624.352 296.604C627.924 296.879 626.55 300.526 626.482 302.246C626.413 303.966 624.421 306.512 623.528 306.581C622.634 306.65 616.039 304.861 616.039 304.861L617.688 295.021Z" fill="#FDC6B4"/>
<path fill-rule="evenodd" clip-rule="evenodd" d="M618.031 294.127C618.031 294.127 570.078 271.765 561.834 268.738C553.59 265.71 544.452 265.435 541.429 274.105C538.406 282.843 543.078 288.829 557.643 294.677C572.208 300.526 613.154 306.374 614.734 306.168C616.314 305.961 616.589 305.549 617.413 303.278C618.169 301.007 619.062 296.879 619.131 296.26C619.199 295.641 618.718 294.265 618.031 294.127Z" fill="#3F3D56"/>
<path d="M619.13 296.26C619.199 295.641 618.718 294.265 618.031 294.127C618.031 294.127 580.383 276.582 566.093 270.458" stroke="white" stroke-opacity="0.2" stroke-width="0.5669" stroke-miterlimit="2.6131" stroke-linecap="round" stroke-linejoin="round"/>
<path d="M611.161 290.893C622.291 286.489 654.168 273.967 658.84 272.591" stroke="white" stroke-opacity="0.2" stroke-width="0.5669" stroke-miterlimit="2.6131" stroke-linecap="round" stroke-linejoin="round"/>
<path d="M598.474 192.018C599.46 191.999 600.244 191.183 600.226 190.195C600.207 189.208 599.392 188.422 598.406 188.441C597.42 188.459 596.635 189.275 596.654 190.263C596.673 191.251 597.487 192.037 598.474 192.018Z" fill="#B46A94"/>
<path d="M613.867 191.744C614.854 191.725 615.638 190.909 615.619 189.921C615.6 188.933 614.785 188.148 613.799 188.167C612.812 188.186 612.028 189.002 612.047 189.99C612.066 190.978 612.881 191.763 613.867 191.744Z" fill="#B46A94"/>
<path fill-rule="evenodd" clip-rule="evenodd" d="M614.872 180.598C615.078 180.736 615.421 180.598 615.49 180.392C615.627 180.185 615.49 179.841 615.284 179.773C613.978 179.085 612.261 179.016 611.024 179.773C610.818 179.91 610.75 180.185 610.887 180.461C611.024 180.667 611.299 180.736 611.574 180.598C612.536 179.979 613.841 180.117 614.872 180.598Z" fill="#29224C"/>
<path fill-rule="evenodd" clip-rule="evenodd" d="M597.49 180.598C598.521 180.117 599.826 179.979 600.788 180.598C600.994 180.736 601.337 180.667 601.475 180.461C601.612 180.254 601.543 179.91 601.337 179.773C600.101 179.016 598.383 179.085 597.078 179.773C596.872 179.91 596.734 180.185 596.872 180.392C596.94 180.598 597.284 180.667 597.49 180.598Z" fill="#29224C"/>
<path fill-rule="evenodd" clip-rule="evenodd" d="M598.176 185.346C598.176 185.002 598.314 184.658 598.52 184.451C598.726 184.245 599.069 184.107 599.413 184.107C599.756 184.107 600.1 184.245 600.306 184.451C600.512 184.658 600.65 185.002 600.65 185.346C600.65 185.621 600.856 185.827 601.13 185.827C601.405 185.827 601.611 185.621 601.611 185.346C601.611 184.727 601.405 184.176 600.924 183.763C600.512 183.35 599.963 183.075 599.344 183.075C598.726 183.075 598.176 183.282 597.764 183.763C597.352 184.176 597.077 184.727 597.077 185.346C597.077 185.621 597.283 185.827 597.558 185.827C597.902 185.827 598.176 185.621 598.176 185.346Z" fill="#29224C"/>
<path fill-rule="evenodd" clip-rule="evenodd" d="M611.711 185.346C611.711 185.002 611.848 184.658 612.054 184.451C612.26 184.245 612.604 184.107 612.947 184.107C613.291 184.107 613.565 184.245 613.84 184.451C614.046 184.658 614.184 185.002 614.184 185.346C614.184 185.621 614.39 185.827 614.665 185.827C614.94 185.827 615.146 185.621 615.146 185.346C615.146 184.727 614.94 184.176 614.459 183.763C614.046 183.35 613.497 183.075 612.878 183.075C612.26 183.075 611.711 183.282 611.298 183.763C610.886 184.176 610.611 184.727 610.611 185.346C610.611 185.621 610.817 185.827 611.092 185.827C611.436 185.827 611.711 185.621 611.711 185.346Z" fill="#29224C"/>
<path fill-rule="evenodd" clip-rule="evenodd" d="M607.177 186.86C607.177 186.86 608.001 188.511 607.933 188.993C607.864 189.474 606.971 189.543 606.627 189.13C606.284 188.717 606.765 187.066 606.902 186.928C606.971 186.722 607.108 186.722 607.177 186.86Z" fill="#E2D0DB"/>
<path fill-rule="evenodd" clip-rule="evenodd" d="M610.131 193.19C610.337 193.052 610.337 192.708 610.131 192.571C609.994 192.364 609.65 192.364 609.513 192.571C608.894 193.19 607.52 193.465 606.146 193.465C604.772 193.465 603.467 193.19 602.78 192.571C602.574 192.433 602.299 192.433 602.162 192.571C602.024 192.777 602.024 193.052 602.162 193.19C602.986 193.947 604.566 194.36 606.146 194.36C607.727 194.291 609.307 193.947 610.131 193.19Z" fill="#B46A94"/>
<path fill-rule="evenodd" clip-rule="evenodd" d="M620.504 180.255C620.573 180.255 620.71 180.255 620.779 180.324C622.565 180.668 623.115 182.457 622.84 184.246C622.909 186.447 620.504 190.025 618.306 190.025C616.107 190.094 616.038 186.447 615.97 184.314C615.97 183.007 616.519 181.906 617.412 181.149C617.344 182.319 617.481 183.764 618.993 183.902L618.924 181.631C618.993 180.668 619.886 180.255 620.504 180.255Z" fill="#F2B6A3"/>
<path fill-rule="evenodd" clip-rule="evenodd" d="M591.856 180.255C591.787 180.255 591.65 180.255 591.581 180.324C589.795 180.668 589.108 182.319 589.108 184.177C589.039 186.379 591.581 190.3 593.78 190.3C595.978 190.369 596.321 186.447 596.39 184.246C596.39 182.938 595.841 181.837 594.947 181.081C595.016 182.25 594.879 183.695 593.367 183.833L593.436 181.562C593.299 180.668 592.474 180.255 591.856 180.255Z" fill="#F2B6A3"/>
<path fill-rule="evenodd" clip-rule="evenodd" d="M606.616 160C614.105 160 620.219 166.124 620.219 173.623V186.008C620.219 191.306 614.105 200.32 606.616 200.32C599.128 200.32 592.67 190.618 593.013 186.008V173.623C593.013 166.192 599.128 160 606.616 160Z" fill="#FDC6B4"/>
<g clip-path="url(#clip0)">
<path d="M603.028 178.741C602.772 178.706 602.506 178.706 602.261 178.638C601.462 178.431 600.664 178.328 599.844 178.34C599.151 178.34 598.502 178.512 597.905 178.889C597.65 179.05 597.373 179.176 597.096 179.325C597.064 179.29 597.021 179.267 596.989 179.233C597.053 179.027 597.085 178.798 597.192 178.626C597.596 177.996 598.129 177.481 598.864 177.389C600.312 177.206 601.675 177.527 602.9 178.409C602.964 178.454 603.028 178.5 603.102 178.546C603.081 178.603 603.06 178.672 603.028 178.741Z" fill="#171858"/>
<path d="M616 178.076C614.946 178.053 613.987 177.973 613.039 178.042C612.113 178.111 611.197 178.328 610.228 178.374C610.313 178.271 610.377 178.145 610.472 178.076C610.781 177.87 611.101 177.653 611.431 177.515C612.368 177.149 613.337 177 614.328 177.011C614.818 177.023 615.233 177.24 615.595 177.55C615.755 177.653 615.84 177.847 616 178.076Z" fill="#171858"/>
<path d="M607.17 185C607.234 185.195 607.298 185.378 607.362 185.573C607.734 186.706 608.107 187.84 608.469 188.973C608.522 189.134 608.576 189.294 608.586 189.454C608.618 189.844 608.363 190.233 608.033 190.29C607.873 190.313 607.66 190.279 607.564 190.164C607.479 190.061 607.447 189.775 607.521 189.672C607.681 189.42 607.596 189.202 607.553 188.962C607.372 188.034 607.181 187.095 607.031 186.156C606.968 185.779 607.021 185.389 607.021 185.011C607.063 185.011 607.117 185 607.17 185Z" fill="black" fill-opacity="0.4"/>
</g>
<path d="M604 193.781C606.528 194.637 608.805 194.247 610.999 193C611.011 193.335 610.821 193.549 610.63 193.744C610.093 194.284 609.335 194.795 608.5 195C607.26 195.298 606.157 195.251 605 194.823C604.797 194.748 604 194.5 604 193.781Z" fill="#171858"/>
<path fill-rule="evenodd" clip-rule="evenodd" d="M619.818 184.108C619.818 184.108 617.757 183.282 617.757 179.773C617.757 176.264 617.757 177.159 617.757 175.301C617.757 173.512 616.52 170.278 612.81 170.278C609.1 170.278 606.146 170.278 606.146 170.278C606.146 170.278 603.192 170.278 599.482 170.278C595.772 170.278 594.536 173.443 594.536 175.301C594.536 177.09 594.536 176.264 594.536 179.773C594.536 183.282 592.475 184.108 592.475 184.108C592.475 181.356 591.65 180.255 591.65 180.255C591.65 180.255 590.895 178.122 590.345 174.338C589.864 171.104 590.07 165.943 595.498 162.09C596.528 161.333 597.765 160.783 598.933 160.37C603.329 158.856 608.207 159.2 612.467 161.196C613.428 161.609 614.39 162.228 615.421 162.847C624.97 168.214 620.642 170.003 620.573 173.374C620.505 176.746 620.573 180.324 620.573 180.324C620.573 180.324 619.818 181.356 619.818 184.108Z" fill="#171858"/>
<path d="M628.062 297.567L630.604 303.485" stroke="white" stroke-width="0.7087" stroke-miterlimit="2.6131" stroke-linecap="round" stroke-linejoin="round"/>
<path d="M631.428 297.567L633.97 303.485" stroke="white" stroke-width="0.7087" stroke-miterlimit="2.6131" stroke-linecap="round" stroke-linejoin="round"/>
<path d="M634.794 297.567L637.336 303.485" stroke="white" stroke-width="0.7087" stroke-miterlimit="2.6131" stroke-linecap="round" stroke-linejoin="round"/>
<path d="M638.229 297.567L640.771 303.485" stroke="white" stroke-width="0.7087" stroke-miterlimit="2.6131" stroke-linecap="round" stroke-linejoin="round"/>
<path d="M628.062 303.485L630.604 297.567" stroke="white" stroke-width="0.7087" stroke-miterlimit="2.6131" stroke-linecap="round" stroke-linejoin="round"/>
<path d="M631.428 303.485L633.97 297.567" stroke="white" stroke-width="0.7087" stroke-miterlimit="2.6131" stroke-linecap="round" stroke-linejoin="round"/>
<path d="M634.794 303.485L637.336 297.567" stroke="white" stroke-width="0.7087" stroke-miterlimit="2.6131" stroke-linecap="round" stroke-linejoin="round"/>
<path d="M638.229 303.485L640.771 297.567" stroke="white" stroke-width="0.7087" stroke-miterlimit="2.6131" stroke-linecap="round" stroke-linejoin="round"/>
<path d="M623.665 278.439H589.658C588.353 278.439 587.322 277.407 587.322 276.1V256.078C587.322 254.77 588.353 253.738 589.658 253.738H623.665C624.971 253.738 626.001 254.77 626.001 256.078V276.1C626.001 277.407 624.971 278.439 623.665 278.439Z" fill="#F2E3ED"/>
<path d="M651.077 250.368C643.794 232.272 637.985 212.84 634 210.5C628.435 207.266 626.069 209.428 626.069 209.428C620.367 215.415 623.459 224.179 625.176 227C626.344 228.995 636.306 249.748 640.84 258.074L631.222 265.78C631.153 265.849 631.016 265.917 630.947 265.917L629.436 263.991C629.436 263.991 628.13 262.133 627.443 261.789C626.894 261.514 624.97 261.445 624.97 261.652C625.039 262.408 625.176 265.367 625.176 265.367C625.176 265.367 618.856 265.505 618.375 266.812C617.894 268.119 621.398 274.449 623.596 275.137C624.627 275.481 632.321 272.66 632.321 272.66C632.321 272.66 639.191 270.527 644.756 267.569C652.039 264.197 655.061 260.207 651.077 250.368Z" fill="#497CCB"/>
<path d="M629.45 236.145C629.45 236.145 626.686 216.978 629.989 209" stroke="black" stroke-opacity="0.2" stroke-width="0.5669" stroke-miterlimit="2.6131" stroke-linecap="round" stroke-linejoin="round"/>
<path d="M560.94 250.298C568.222 232.202 574.015 213.339 578 211C583.565 207.766 585.947 209.359 585.947 209.359C591.649 215.345 589.52 225.115 587.802 227.937C586.634 229.932 575.711 249.679 571.176 258.004L580.795 265.71C580.863 265.779 581.001 265.848 581.069 265.848L582.581 263.922C582.581 263.922 583.886 262.064 584.573 261.72C585.123 261.445 587.046 261.376 587.046 261.582C586.978 262.339 586.84 265.298 586.84 265.298C586.84 265.298 593.161 265.435 593.642 266.743C594.123 268.05 590.619 274.38 588.42 275.068C587.39 275.412 579.695 272.591 579.695 272.591C579.695 272.591 572.825 270.458 567.26 267.499C560.047 264.197 557.024 260.206 560.94 250.298Z" fill="#497CCB"/>
<path d="M582.845 237.145C582.845 237.145 585.609 217.978 582.306 210" stroke="black" stroke-opacity="0.2" stroke-width="0.5669" stroke-miterlimit="2.6131" stroke-linecap="round" stroke-linejoin="round"/>
<path d="M610.681 183.832C610.681 183.832 612.948 185.002 615.627 183.075" stroke="#171858" stroke-miterlimit="10" stroke-linecap="round"/>
<path d="M602.436 183.832C602.436 183.832 600.169 185.002 597.489 183.075" stroke="#171858" stroke-miterlimit="10" stroke-linecap="round"/>
<path d="M632.733 264.61L631.29 265.78C631.222 265.848 631.084 265.917 631.016 265.917L629.504 263.991C629.504 263.991 628.199 262.133 627.512 261.789C626.962 261.514 625.039 261.445 625.039 261.651C625.107 262.408 625.245 265.367 625.245 265.367C625.245 265.367 618.924 265.504 618.443 266.812C617.962 268.119 621.466 274.449 623.665 275.137C624.695 275.481 632.39 272.66 632.39 272.66C632.39 272.66 633.42 272.316 635 271.766" fill="#FDC6B4"/>
<path d="M579.352 264.61L580.795 265.78C580.864 265.848 581.001 265.917 581.07 265.917L582.581 263.991C582.581 263.991 583.886 262.133 584.573 261.789C585.123 261.514 587.047 261.445 587.047 261.651C586.978 262.408 586.841 265.367 586.841 265.367C586.841 265.367 593.161 265.504 593.642 266.812C594.123 268.119 590.619 274.449 588.421 275.137C587.39 275.481 579.696 272.66 579.696 272.66C579.696 272.66 578.665 272.316 577.085 271.766" fill="#FDC6B4"/>
<defs>
<clipPath id="clip0">
<rect width="19" height="18" fill="white" transform="translate(597 177)"/>
</clipPath>
</defs>
</svg>
