<?xml version="1.0" encoding="utf-8"?>
<!-- Generator: Adobe Illustrator 21.0.0, SVG Export Plug-In . SVG Version: 6.00 Build 0)  -->
<svg version="1.1" id="Layer_1" xmlns="http://www.w3.org/2000/svg" xmlns:xlink="http://www.w3.org/1999/xlink" x="0px" y="0px"
	 viewBox="0 0 340.2 340.2" style="enable-background:new 0 0 340.2 340.2;" xml:space="preserve">
<style type="text/css">
	.st0{fill:#E2EDF0;}
	.st1{clip-path:url(#SVGID_2_);}
	.st2{fill:#B9CBD1;}
	.st3{fill:#B9CBD1;stroke:#97B2BA;stroke-miterlimit:10;}
	.st4{fill:#96ACB3;}
</style>
<circle class="st0" cx="180.1" cy="170.1" r="105"/>
<g>
	<defs>
		<circle id="SVGID_1_" cx="180.1" cy="170.1" r="105"/>
	</defs>
	<clipPath id="SVGID_2_">
		<use xlink:href="#SVGID_1_"  style="overflow:visible;"/>
	</clipPath>
	<g class="st1">
		<path class="st2" d="M208.1,150.1c0,24-9.5,41.7-30,41.7s-30.6-16-30.6-40s10.1-43.4,30.6-43.4S208.1,126.2,208.1,150.1z"/>
		<path class="st2" d="M235.8,252.1c0,41.8-10.8,61.2-52.6,61.2s-62.7-15.8-62.7-57.6s12.9-57.6,54.7-57.6S235.8,210.3,235.8,252.1z
			"/>
		<rect x="169.3" y="176.6" class="st2" width="17.6" height="34.9"/>
		<circle class="st3" cx="164.3" cy="152.6" r="11.5"/>
		<circle class="st3" cx="191.5" cy="152.6" r="11.5"/>
		<line class="st3" x1="175.8" y1="152.6" x2="180.1" y2="152.6"/>
		<path class="st2" d="M149.1,150.9c0,0-1.2-4.8-4.6-1.7c-3.4,3.2-0.7,17.9,7.5,16.7"/>
		<path class="st2" d="M207.5,150.9c0,0,1.2-4.8,4.6-1.7c3.4,3.2,0.7,17.9-7.5,16.7"/>
		<path class="st4" d="M147.5,145.3c0,0-5.8-15,1.5-24.5c0,0,2.9-16.2,13.1-16.5c0,0,18.2-9.7,27.2,0c0,0,12.4-1.5,16.7,6.5
			c0,0,14.3,19.6,3.2,35.9c0,0-44.2-5-49.7-21.3C159.4,125.4,154.3,142.4,147.5,145.3z"/>
	</g>
</g>
</svg>
