<svg width="535" height="633" viewBox="0 0 535 633" fill="none" xmlns="http://www.w3.org/2000/svg">
<g clip-path="url(#clip0)">
<path d="M302.604 477C403.862 477 485.948 453.564 485.948 424.654C485.948 395.744 403.862 372.308 302.604 372.308C201.346 372.308 119.261 395.744 119.261 424.654C119.261 453.564 201.346 477 302.604 477Z" fill="#F5F5F5"/>
<path d="M477.043 221.023C477.043 221.023 444.565 253.477 462.899 301.636C481.233 349.794 431.469 429.883 431.469 429.883C431.469 429.883 431.993 429.805 432.993 429.632C499.699 417.865 532.842 341.628 495.749 284.995C481.977 263.941 470.636 239.239 477.043 221.023Z" fill="#68E1FD"/>
<path d="M477.043 221.023C477.043 221.023 458.708 260.806 477.043 293.26C495.377 325.715 480.186 416.797 431.469 429.883" stroke="#535461" stroke-width="2" stroke-miterlimit="10"/>
<path d="M534.884 352.291C534.884 352.291 497.823 346.392 494.444 379.584C491.065 412.777 423.202 417.373 423.202 417.373C423.202 417.373 423.642 417.676 424.475 418.221C480.526 454.989 534.109 441.64 526.037 392.817C523.014 374.669 523.255 356.437 534.884 352.291Z" fill="#68E1FD"/>
<path opacity="0.2" d="M534.884 352.291C534.884 352.291 497.823 346.392 494.444 379.584C491.065 412.777 423.202 417.373 423.202 417.373C423.202 417.373 423.642 417.676 424.475 418.221C480.526 454.989 534.109 441.64 526.037 392.817C523.014 374.669 523.255 356.437 534.884 352.291Z" fill="#F5F5F5"/>
<path d="M534.885 352.291C534.885 352.291 506.116 358.604 508.478 384.746C510.841 410.887 465.738 442.211 423.182 417.362" stroke="#535461" stroke-width="2" stroke-miterlimit="10"/>
<path opacity="0.2" d="M160.683 4.07706C153.407 3.82437 145.95 4.07706 139.124 6.62203C120.554 13.544 111.752 36.1871 114.614 55.7978C117.476 75.4085 129.248 92.4382 141.463 108.042C153.677 123.646 166.912 139.051 173.611 157.678C176.951 166.982 178.513 177.406 175.119 186.693C169.882 201.015 154.093 209.02 138.935 210.68C123.777 212.341 108.556 209.101 93.3441 207.973C86.9614 207.522 80.3982 207.467 74.3856 209.561C67.7863 211.844 62.2883 216.501 57.2327 221.357C37.5068 240.399 21.7171 266.39 24.2719 293.681C27.1609 324.618 52.9264 349.075 81.1475 362.188C90.4913 366.537 100.377 370.057 108.601 376.266C130.268 392.637 135.134 423.312 132.976 450.395C130.819 477.478 123.47 504.589 127.56 531.437C132.372 562.663 153.668 590.865 182.395 604.041C207.989 615.773 240.02 615.042 262.743 598.446C273.82 590.324 282.198 579.124 289.484 567.509C300.48 549.986 309.402 531.246 316.071 511.664C319.239 502.36 322.219 492.351 329.612 485.88C334.126 481.901 339.976 479.671 345.763 477.939C363.205 472.722 381.577 471.287 399.181 466.649C416.786 462.01 434.498 453.364 444.068 437.905C457.61 415.966 451.29 387.908 451.353 362.097C451.462 303.292 486.661 250.642 499.652 193.335C503.895 174.599 505.475 153.87 495.996 137.165C489.55 125.767 478.69 117.644 467.269 111.327C442.172 97.3928 413.644 91.1928 385.576 85.1553C346.567 76.7803 299.198 75.6973 268.963 48.6051C239.948 22.6139 200.252 4.07706 160.683 4.07706Z" fill="#68E1FD"/>
<g opacity="0.5">
<path opacity="0.5" d="M193.415 228.064C193.414 219.842 192.126 211.672 189.597 203.848L183.311 184.37C183.311 184.046 183.311 183.727 183.311 183.407C183.504 170.923 173.766 164.694 170.016 165.369C166.176 166.06 155.521 160.72 155.521 160.72V160.867C154.79 160.027 154.132 159.127 153.551 158.176C155.392 156.837 156.947 155.143 158.123 153.194C159.299 151.245 160.074 149.081 160.401 146.829C160.729 144.577 160.603 142.282 160.03 140.08C159.457 137.877 158.449 135.811 157.066 134.003C158.218 133.138 159.096 131.961 159.596 130.611C160.466 128.167 159.801 125.377 158.386 123.199C157.785 122.29 157.082 121.452 156.291 120.702C155.093 119.516 153.784 118.447 152.383 117.509C148.889 115.091 145.049 113.012 140.859 112.274C140.134 112.103 139.378 112.103 138.653 112.274C138.024 112.528 137.425 112.851 136.867 113.237C133.996 114.871 130.424 114.164 127.113 113.991C123.803 113.819 119.779 114.745 118.732 117.849C118.407 118.807 118.428 119.844 118.208 120.828C117.684 123.236 115.824 125.104 114.389 127.109C112.954 129.114 111.88 131.82 113.074 133.998C113.483 134.731 114.122 135.406 114.122 136.244C114.122 136.846 113.766 137.385 113.598 137.96C113.237 139.269 113.918 140.578 114.965 141.525C115.417 142.012 115.948 142.417 116.537 142.724C118.197 143.572 120.109 143.834 121.801 144.619C122.646 145.015 123.421 145.546 124.096 146.189C124.923 147.054 125.569 148.075 125.997 149.192C126.425 150.309 126.627 151.5 126.589 152.696L126.94 152.733C126.94 152.837 126.94 152.937 126.94 153.041C127.307 153.083 127.695 153.12 128.077 153.136C128.627 154.023 129.257 154.859 129.958 155.632C129.839 156.079 129.704 156.533 129.554 156.993C128.323 157.847 118.255 164.547 106.804 162.935C94.5828 161.213 87.5948 214.605 87.5948 214.605C87.1419 217.659 86.9212 220.742 86.9348 223.829C86.8824 231.681 88.5325 241.956 97.7259 240.443L102.613 238.836V265.245C102.613 265.245 103.31 272.479 100.869 277.284C98.4278 282.09 108.554 280.383 108.554 280.383C108.554 280.383 108.941 280.786 109.654 281.472L109.428 282.106L109.727 282.409C108.395 286.959 106.6 291.36 104.368 295.543L104.656 295.689C104.473 296.04 104.368 296.213 104.368 296.213C104.368 296.213 108.129 298.134 113.305 300.61C117.464 314.659 126.568 347.198 123.572 353.395L123.656 353.573C124.216 354.736 127.349 361.588 126.715 367.864C126.144 373.475 133.918 398.973 136.82 408.233L135.447 408.511L140.335 426.078L139.287 437.447C139.287 437.447 133.352 453.292 147.318 450.194C161.283 447.095 157.443 434.348 157.443 434.348L157.794 408.511C157.794 408.511 156.448 407.762 154.788 407.045C153.646 403.962 151.157 396.675 151.157 391.634C151.157 385.091 146.616 356.84 146.616 356.84V356.782V356.672V356.641L146.589 356.264V356.201C146.589 355.85 146.532 355.369 146.49 354.783V354.751C145.966 347.114 144.395 321.166 145.542 307.64C146.551 306.952 147.6 306.327 148.685 305.766C152.085 314.351 160.848 337.545 160.288 347.276C159.591 359.316 160.115 349.862 160.288 348.323C160.34 347.847 160.377 348.423 160.393 349.716C160.393 349.951 160.393 350.213 160.393 350.49C160.393 350.768 160.393 351.077 160.393 351.396C160.393 351.715 160.393 352.061 160.393 352.443C160.393 352.624 160.393 352.809 160.393 352.998C160.393 353.375 160.393 353.769 160.393 354.181C160.393 354.387 160.393 354.596 160.393 354.809C160.393 355.856 160.393 357.018 160.356 358.227C160.356 358.468 160.356 358.712 160.356 358.96C160.356 359.698 160.356 360.452 160.319 361.216C160.319 362.263 160.277 363.278 160.256 364.331C160.204 366.686 160.136 369.068 160.052 371.298C160.052 371.546 160.043 371.792 160.026 372.036C160.008 372.524 159.989 373.003 159.968 373.47C159.947 373.938 159.926 374.395 159.905 374.842C159.885 375.285 159.862 375.716 159.837 376.135C159.811 376.627 159.78 377.098 159.754 377.548L157.857 377.276L157.454 381.631C156.819 388.545 157.713 395.515 160.073 402.046C160.723 403.836 161.226 405.317 161.336 405.846C161.687 407.568 161.336 419.98 161.336 419.98C161.336 419.98 163.431 436.17 173.211 433.066C177.611 431.668 179.748 427.418 180.77 423.157C181.903 418.217 181.481 413.049 179.56 408.359C178.172 404.872 176.752 399.983 177.753 396.204C179.497 389.661 179.497 380.359 179.497 380.359L178.418 380.207C178.687 379.696 178.93 379.172 179.146 378.637C179.146 378.637 178.795 354.866 181.938 351.768C183.667 350.061 183.51 345.962 182.986 342.612C182.237 337.764 182.062 332.845 182.462 327.955C182.677 325.438 182.986 323.244 183.347 322.464C184.269 320.643 185.191 302.28 181.11 293.444L181.949 293.182L181.818 292.533L181.949 292.491C182.564 294.133 183.264 295.742 184.044 297.312C184.25 297.474 184.487 297.591 184.741 297.658C196.05 295.674 196.506 285.126 195.877 279.368C196.354 279.598 196.616 279.745 196.616 279.745L197.664 264.564C198.738 262.141 199.136 259.047 199.11 255.702C199.157 243.746 193.415 228.064 193.415 228.064ZM180.948 271.212C180.173 264.601 179.099 258.377 179.099 258.377L173.861 239.773V233L182.169 263.989L180.948 271.212Z" fill="url(#paint0_linear)"/>
</g>
<path d="M157.396 372.832L157.009 377.087C156.397 383.849 157.264 390.663 159.549 397.057C160.173 398.811 160.66 400.256 160.765 400.774C161.1 402.459 160.765 414.577 160.765 414.577C160.765 414.577 162.787 430.402 172.221 427.371C176.464 426.01 178.507 421.848 179.513 417.687C180.603 412.86 180.194 407.817 178.339 403.229C176.998 399.821 175.626 395.031 176.595 391.352C178.282 384.955 178.282 375.868 178.282 375.868L157.396 372.832Z" fill="#5A5773"/>
<path d="M147.292 299.777C147.292 299.777 160.43 331.761 159.754 343.539C159.078 355.316 159.586 346.062 159.754 344.549C160.053 341.853 159.754 373.863 158.743 377.527C158.743 377.527 172.557 387.624 177.947 374.161C177.947 374.161 177.612 350.935 180.64 347.904C182.305 346.24 182.143 342.23 181.651 338.958C180.924 334.226 180.748 329.425 181.127 324.652C181.331 322.192 181.614 320.025 181.981 319.287C182.992 317.266 184.003 294.375 177.937 287.979L147.292 299.777Z" fill="#3F3D56"/>
<path opacity="0.1" d="M160.43 377.543C161.441 373.842 161.739 341.853 161.441 344.565C161.273 346.078 160.765 355.338 161.441 343.555C162.116 331.771 148.978 299.793 148.978 299.793L178.371 288.497C178.235 288.324 178.093 288.162 177.952 288.01L147.297 299.793C147.297 299.793 160.435 331.777 159.759 343.555C159.083 355.332 159.591 346.078 159.759 344.565C160.058 341.869 159.759 373.879 158.748 377.543C158.748 377.543 164.264 381.573 169.686 381.144C164.861 380.783 160.43 377.543 160.43 377.543Z" fill="black"/>
<path d="M135.835 403.464L140.55 420.634L139.539 431.742C139.539 431.742 133.813 447.225 147.286 444.195C160.759 441.164 157.056 428.711 157.056 428.711L157.391 403.464C157.391 403.464 152.001 400.433 149.643 400.774C147.286 401.114 135.835 403.464 135.835 403.464Z" fill="#5A5773"/>
<path d="M112.593 291.701C112.593 291.701 128.088 341.859 124.384 349.601C124.384 349.601 128.088 357.008 127.417 363.734C126.747 370.46 138.198 406.485 138.198 406.485L155.045 403.454C155.045 403.454 151.001 393.357 151.001 386.96C151.001 380.563 146.621 352.935 146.621 352.935C146.621 352.935 142.918 302.437 147.297 297.05L112.593 291.701Z" fill="#3F3D56"/>
<g opacity="0.1">
<path opacity="0.1" d="M145.988 301.154C143.195 312.587 146.281 354.657 146.281 354.657C146.281 354.657 150.66 382.259 150.66 388.682C150.66 393.566 153.012 400.601 154.128 403.658L155.039 403.496C155.039 403.496 150.995 393.398 150.995 387.002C150.995 380.605 146.616 352.977 146.616 352.977C146.616 352.977 143.798 314.529 145.988 301.154Z" fill="black"/>
<path opacity="0.1" d="M124.385 349.601L124.469 349.773C124.495 349.601 124.521 349.418 124.537 349.25C124.492 349.369 124.441 349.486 124.385 349.601Z" fill="black"/>
<path opacity="0.1" d="M146.532 298.705C146.685 298.124 146.943 297.576 147.292 297.087L112.593 291.701C112.593 291.701 112.797 292.355 113.148 293.522L146.532 298.705Z" fill="black"/>
</g>
<path d="M193.441 273.521C193.441 273.521 198.496 292.365 183.336 295.066C183.09 295.002 182.86 294.888 182.661 294.731C182.661 294.731 173.902 277.562 180.639 270.83L193.441 273.521Z" fill="#A1616A"/>
<path d="M131.456 148.304C131.456 148.304 132.467 162.438 121.351 169.175C110.235 175.911 144.924 194.421 144.924 194.421L163.117 165.468C163.117 165.468 155.374 166.468 150.66 153.015L131.456 148.304Z" fill="#F5D9B8"/>
<path opacity="0.1" d="M124.044 170.174C124.044 170.174 141.226 205.859 156.721 172.195L180.639 290.685C180.639 290.685 143.578 302.133 143.248 307.52C142.918 312.906 105.861 293.721 105.861 293.721C105.861 293.721 113.944 278.907 111.927 269.82C109.911 260.733 124.044 170.174 124.044 170.174Z" fill="black"/>
<path d="M124.044 169.499C124.044 169.499 141.226 205.183 156.721 171.52L180.639 290.015C180.639 290.015 143.578 301.463 143.248 306.85C142.918 312.236 105.861 293.046 105.861 293.046C105.861 293.046 113.944 278.232 111.927 269.145C109.911 260.058 124.044 169.499 124.044 169.499Z" fill="#E1E7EF"/>
<path d="M140.89 412.892C140.89 412.892 136.511 403.129 146.616 403.129C156.721 403.129 155.039 411.882 155.039 411.882L140.89 412.892Z" fill="#5A5773"/>
<path d="M163.798 387.64C163.798 387.64 159.754 377.202 169.864 376.867C179.974 376.532 174.919 386.29 174.919 386.29L163.798 387.64Z" fill="#5A5773"/>
<path opacity="0.1" d="M155.207 161.914C155.207 161.914 165.48 167.149 169.188 166.458C172.897 165.767 182.661 172.179 181.991 184.972L188.078 204.058C190.513 211.71 191.75 219.693 191.745 227.723C191.745 227.723 200.503 251.96 195.789 262.732L194.778 277.546C194.778 277.546 187.03 273.17 178.942 274.515L180.98 262.418L171.865 228.074L156.705 191.38L155.207 161.914Z" fill="black"/>
<path d="M155.207 161.25C155.207 161.25 165.48 166.484 169.188 165.793C172.897 165.102 182.661 171.515 181.991 184.308L188.078 203.393C190.513 211.046 191.75 219.029 191.745 227.059C191.745 227.059 200.503 251.295 195.789 262.068L194.778 276.882C194.778 276.882 187.03 272.506 178.942 273.851L180.964 261.733L171.865 227.399L156.721 190.705L155.207 161.25Z" fill="#67647E"/>
<path opacity="0.1" d="M172.221 202.152V240.192L177.276 258.372C177.276 258.372 180.645 278.232 179.634 284.293C178.623 290.355 162.452 291.7 158.072 286.649C153.693 281.598 156.05 238.491 156.05 238.491L155.207 175.388L155.883 173.367L172.221 202.152Z" fill="black"/>
<path d="M172.913 200.472V238.512L177.968 256.692C177.968 256.692 181.336 276.552 180.325 282.613C179.314 288.675 163.143 290.02 158.764 284.969C154.385 279.918 156.742 236.811 156.742 236.811L155.898 173.692L172.913 200.472Z" fill="#67647E"/>
<path opacity="0.1" d="M105.013 232.115L115.793 265.617L110.738 279.923C110.738 279.923 134.657 305.169 149.817 293.051C149.817 293.051 151.503 241.543 148.13 229.425C144.756 217.307 128.591 176.555 128.591 176.555L125.243 165.798L107.391 175.896L105.013 232.115Z" fill="black"/>
<path d="M104.169 230.43V263.408C104.169 263.408 104.845 270.479 102.483 275.191C100.12 279.902 109.895 278.221 109.895 278.221C109.895 278.221 133.813 303.468 148.973 291.35C148.973 291.35 150.66 239.841 147.286 227.723C143.913 215.605 127.747 174.854 127.747 174.854L124.379 164.081L106.527 174.179L104.169 230.43Z" fill="#67647E"/>
<path opacity="0.1" d="M130.277 158.224C130.277 158.224 120.005 165.798 108.213 164.113C96.4217 162.427 89.6851 214.611 89.6851 214.611C89.6851 214.611 85.3058 241.543 99.4547 239.187L130.785 228.749C130.785 228.749 124.049 221.677 125.06 212.59L109.895 218.647L110.576 189.699L130.277 158.224Z" fill="black"/>
<path opacity="0.1" d="M90.356 213.936C90.356 213.936 85.9767 240.868 100.126 238.512L131.456 228.074C131.456 228.074 124.72 221.008 125.731 211.915L110.576 217.977L90.356 213.936Z" fill="black"/>
<path d="M124.986 215.464C124.986 215.464 135.5 201.65 143.242 208.282C150.984 214.914 127.763 227.069 127.763 227.069L124.986 215.464Z" fill="#F5D9B8"/>
<path d="M130.277 157.548C130.277 157.548 120.005 165.123 108.213 163.437C96.4217 161.752 89.6851 213.935 89.6851 213.935C89.6851 213.935 85.3058 240.867 99.4547 238.512L130.785 228.074C130.785 228.074 124.049 221.002 125.06 211.915L109.895 217.977L110.576 189.024L127.758 174.891L130.277 157.548Z" fill="#67647E"/>
<path opacity="0.1" d="M150.996 153.675L131.792 148.963C131.792 148.963 132.792 150.094 131.624 154.517C134.715 158.061 138.513 162.767 143.583 162.767C147.212 162.774 150.745 161.604 153.651 159.433C152.567 157.611 151.677 155.681 150.996 153.675Z" fill="black"/>
<path d="M143.248 162.097C152.552 162.097 160.095 154.56 160.095 145.263C160.095 135.965 152.552 128.428 143.248 128.428C133.944 128.428 126.401 135.965 126.401 145.263C126.401 154.56 133.944 162.097 143.248 162.097Z" fill="#F5D9B8"/>
<path opacity="0.1" d="M149.633 137.955C153.541 137.291 157.836 135.558 159.146 131.82C159.984 129.428 159.345 126.706 157.978 124.576C156.611 122.445 154.599 120.807 152.525 119.341C149.156 116.975 145.442 114.944 141.388 114.232C140.689 114.065 139.96 114.065 139.261 114.232C138.653 114.481 138.075 114.797 137.538 115.174C134.766 116.771 131.32 116.08 128.109 115.913C124.897 115.745 121.047 116.651 120.036 119.681C119.722 120.618 119.743 121.629 119.512 122.592C118.988 124.947 117.213 126.78 115.845 128.742C114.478 130.705 113.425 133.359 114.578 135.474C114.971 136.191 115.625 136.851 115.625 137.667C115.524 138.248 115.348 138.813 115.102 139.348C114.625 141.086 116.013 142.839 117.616 143.666C119.219 144.493 121.063 144.75 122.697 145.519C124.227 146.274 125.508 147.451 126.387 148.912C127.267 150.372 127.708 152.055 127.658 153.759C129.146 153.931 130.88 154.02 131.885 152.911C132.336 152.413 132.556 151.749 132.964 151.22C133.488 150.529 134.306 150.121 134.976 149.566C138.501 146.671 135.998 142.672 137.993 139.552C139.041 137.945 140.707 138.437 142.394 138.463C144.817 138.52 147.241 138.35 149.633 137.955Z" fill="black"/>
<path d="M149.298 137.62C153.206 136.956 157.501 135.223 158.811 131.485C159.649 129.093 159.01 126.371 157.643 124.241C156.276 122.11 154.264 120.472 152.19 119.006C148.821 116.64 145.107 114.609 141.053 113.897C140.354 113.73 139.625 113.73 138.926 113.897C138.318 114.146 137.74 114.462 137.203 114.839C134.432 116.436 130.985 115.745 127.774 115.578C124.562 115.41 120.712 116.316 119.701 119.346C119.387 120.283 119.408 121.294 119.177 122.257C118.654 124.612 116.878 126.445 115.511 128.408C114.143 130.371 113.09 133.024 114.243 135.139C114.636 135.856 115.29 136.516 115.29 137.333C115.189 137.913 115.013 138.478 114.767 139.013C114.29 140.751 115.678 142.504 117.281 143.331C118.884 144.158 120.728 144.415 122.362 145.184C123.898 145.938 125.184 147.118 126.067 148.583C126.95 150.048 127.391 151.736 127.339 153.445C128.826 153.617 130.56 153.706 131.566 152.597C132.017 152.099 132.237 151.435 132.645 150.906C133.169 150.215 133.986 149.807 134.657 149.252C138.182 146.357 135.678 142.358 137.674 139.238C138.722 137.631 140.388 138.123 142.074 138.149C144.493 138.198 146.912 138.021 149.298 137.62Z" fill="#4A4347"/>
<path opacity="0.1" d="M169.691 194.243C169.691 194.243 173.395 213.433 171.713 220.84C170.686 225.149 170.838 229.654 172.153 233.884" fill="black"/>
<path opacity="0.1" d="M109.821 202.32C109.821 202.32 108.208 215.113 110.895 217.804L109.821 202.32Z" fill="black"/>
<path d="M203.887 359.981C204.096 359.981 204.296 359.898 204.443 359.751C204.59 359.603 204.673 359.404 204.673 359.195C204.673 358.987 204.59 358.787 204.443 358.64C204.296 358.493 204.096 358.41 203.887 358.41C203.679 358.41 203.479 358.493 203.332 358.64C203.184 358.787 203.102 358.987 203.102 359.195C203.102 359.404 203.184 359.603 203.332 359.751C203.479 359.898 203.679 359.981 203.887 359.981Z" fill="black"/>
<g opacity="0.5">
<path opacity="0.5" d="M445.832 268.506V268.072L302.908 158.25C302.818 158.183 302.709 158.147 302.596 158.147C302.484 158.147 302.375 158.183 302.285 158.25L159.355 268.072V438.301H159.628V438.573H446.11V268.344L445.832 268.506Z" fill="url(#paint1_linear)"/>
</g>
<path d="M440.898 433.553H164.312V269.187L302.605 162.924L440.898 269.187V433.553Z" fill="white"/>
<path d="M430.944 423.811H174.264V271.275L302.604 172.661L430.944 271.275V423.811Z" fill="#E0E0E0"/>
<path d="M346.144 170.382L189.569 211.399L241.775 410.394L398.35 369.377L346.144 170.382Z" fill="#68E1FD"/>
<path d="M384.323 200.613H222.457V406.333H384.323V200.613Z" fill="#F5F5F5"/>
<path opacity="0.05" d="M165.621 269.448L303.914 351.631L165.621 433.815V269.448Z" fill="black"/>
<path d="M164.573 269.448L302.867 351.631L164.573 433.815V269.448Z" fill="white"/>
<path opacity="0.05" d="M440.112 269.448L301.818 351.631L440.112 433.815V269.448Z" fill="black"/>
<path d="M441.16 269.448L302.866 351.631L441.16 433.815V269.448Z" fill="white"/>
<path opacity="0.05" d="M164.573 431.197L302.867 323.365L441.16 431.197H164.573Z" fill="black"/>
<path d="M164.573 433.815L302.867 325.982L441.16 433.815H164.573Z" fill="white"/>
<path d="M192.677 446.299C192.677 446.299 185.73 422.744 193.981 405.396C197.486 398.145 198.543 389.953 196.993 382.05C196.228 378.305 195.122 374.637 193.688 371.094" stroke="#535461" stroke-width="2" stroke-miterlimit="10"/>
<path d="M198.817 360.133C198.817 363.022 193.578 371.392 193.578 371.392C193.578 371.392 188.34 363.017 188.34 360.133C188.34 358.744 188.892 357.413 189.874 356.431C190.857 355.449 192.189 354.898 193.578 354.898C194.968 354.898 196.3 355.449 197.282 356.431C198.265 357.413 198.817 358.744 198.817 360.133Z" fill="#68E1FD"/>
<path d="M207.485 376.13C205.914 378.553 196.967 382.741 196.967 382.741C196.967 382.741 197.129 372.868 198.701 370.445C199.484 369.349 200.66 368.596 201.985 368.345C203.309 368.093 204.679 368.361 205.811 369.093C206.942 369.826 207.748 370.965 208.06 372.276C208.372 373.587 208.166 374.967 207.485 376.13Z" fill="#68E1FD"/>
<path d="M207.087 403.459C204.505 404.757 194.667 403.862 194.667 403.862C194.667 403.862 199.795 395.424 202.373 394.126C202.989 393.781 203.67 393.564 204.373 393.489C205.075 393.414 205.786 393.482 206.462 393.688C207.138 393.895 207.765 394.236 208.306 394.691C208.846 395.146 209.289 395.706 209.607 396.336C209.926 396.967 210.113 397.655 210.158 398.36C210.203 399.065 210.105 399.772 209.87 400.438C209.634 401.104 209.266 401.715 208.788 402.235C208.31 402.756 207.731 403.174 207.087 403.464V403.459Z" fill="#68E1FD"/>
<path d="M202.143 424.078C199.817 425.795 189.969 426.57 189.969 426.57C189.969 426.57 193.594 417.388 195.92 415.671C197.039 414.925 198.402 414.638 199.727 414.869C201.053 415.1 202.238 415.832 203.038 416.913C203.838 417.993 204.191 419.34 204.025 420.674C203.858 422.008 203.184 423.227 202.143 424.078Z" fill="#68E1FD"/>
<path d="M185.962 383.296C188.057 385.306 197.69 387.394 197.69 387.394C197.69 387.394 195.328 377.81 193.253 375.8C192.244 374.909 190.931 374.44 189.585 374.491C188.239 374.542 186.965 375.109 186.027 376.075C185.089 377.04 184.558 378.329 184.546 379.675C184.534 381.02 185.041 382.319 185.962 383.301V383.296Z" fill="#68E1FD"/>
<path d="M180.481 407.485C183.064 408.783 192.902 407.888 192.902 407.888C192.902 407.888 187.773 399.449 185.196 398.151C183.965 397.596 182.568 397.536 181.294 397.986C180.021 398.435 178.97 399.359 178.362 400.564C177.754 401.769 177.635 403.162 178.03 404.452C178.425 405.743 179.303 406.831 180.481 407.49V407.485Z" fill="#68E1FD"/>
<path d="M178.387 431.721C180.713 433.438 190.561 434.213 190.561 434.213C190.561 434.213 186.936 425.031 184.61 423.314C184.061 422.865 183.426 422.533 182.745 422.337C182.063 422.14 181.349 422.084 180.645 422.172C179.941 422.26 179.262 422.49 178.65 422.848C178.038 423.205 177.504 423.684 177.083 424.253C176.661 424.823 176.359 425.473 176.196 426.163C176.033 426.852 176.012 427.568 176.134 428.266C176.256 428.965 176.518 429.631 176.906 430.225C177.293 430.818 177.797 431.327 178.387 431.721Z" fill="#68E1FD"/>
<path opacity="0.5" d="M296.842 210.036H231.886V215.27H296.842V210.036Z" fill="#68E1FD"/>
<path opacity="0.5" d="M372.274 230.974H231.886V236.209H372.274V230.974Z" fill="#68E1FD"/>
<path opacity="0.5" d="M372.274 244.584H231.886V249.819H372.274V244.584Z" fill="#68E1FD"/>
<path opacity="0.4" d="M372.274 258.194H231.886V263.428H372.274V258.194Z" fill="#68E1FD"/>
<path opacity="0.4" d="M372.274 271.804H231.886V277.038H372.274V271.804Z" fill="#68E1FD"/>
<path opacity="0.3" d="M312.033 285.414H231.886V290.648H312.033V285.414Z" fill="#68E1FD"/>
<path opacity="0.3" d="M341.368 299.024H231.886V304.258H341.368V299.024Z" fill="#68E1FD"/>
</g>
<defs>
<linearGradient id="paint0_linear" x1="86.94" y1="281.399" x2="199.052" y2="281.399" gradientUnits="userSpaceOnUse">
<stop stop-color="#808080" stop-opacity="0.25"/>
<stop offset="0.54" stop-color="#808080" stop-opacity="0.12"/>
<stop offset="1" stop-color="#808080" stop-opacity="0.1"/>
</linearGradient>
<linearGradient id="paint1_linear" x1="182773" y1="207827" x2="182773" y2="57589.3" gradientUnits="userSpaceOnUse">
<stop stop-color="#808080" stop-opacity="0.25"/>
<stop offset="0.54" stop-color="#808080" stop-opacity="0.12"/>
<stop offset="1" stop-color="#808080" stop-opacity="0.1"/>
</linearGradient>
<clipPath id="clip0">
<rect width="535" height="633" fill="white"/>
</clipPath>
</defs>
</svg>
